<svg width="2000" height="2000" viewBox="0 0 2000 2000" fill="none" xmlns="http://www.w3.org/2000/svg">
<g clip-path="url(#clip0)">
<rect width="2000" height="2000" fill="black"/>
<path d="M301.172 1274.53V705.783H461.719C511.198 705.783 554.948 716.721 592.969 738.596C630.99 760.471 660.286 791.591 680.859 831.955C701.693 872.32 712.24 918.674 712.5 971.018V1007.35C712.5 1060.99 702.083 1108 681.25 1148.36C660.677 1188.73 631.12 1219.72 592.578 1241.33C554.297 1262.94 509.635 1274.01 458.594 1274.53H301.172ZM376.172 767.502V1213.21H455.078C512.891 1213.21 557.812 1195.24 589.844 1159.3C622.135 1123.36 638.281 1072.19 638.281 1005.78V972.58C638.281 907.997 623.047 857.867 592.578 822.19C562.37 786.252 519.401 768.023 463.672 767.502H376.172ZM826.172 1274.53V705.783H986.719C1036.2 705.783 1079.95 716.721 1117.97 738.596C1155.99 760.471 1185.29 791.591 1205.86 831.955C1226.69 872.32 1237.24 918.674 1237.5 971.018V1007.35C1237.5 1060.99 1227.08 1108 1206.25 1148.36C1185.68 1188.73 1156.12 1219.72 1117.58 1241.33C1079.3 1262.94 1034.64 1274.01 983.594 1274.53H826.172ZM901.172 767.502V1213.21H980.078C1037.89 1213.21 1082.81 1195.24 1114.84 1159.3C1147.14 1123.36 1163.28 1072.19 1163.28 1005.78V972.58C1163.28 907.997 1148.05 857.867 1117.58 822.19C1087.37 786.252 1044.4 768.023 988.672 767.502H901.172ZM1518.75 1021.02C1454.43 1002.53 1407.55 979.872 1378.12 953.049C1348.96 925.966 1334.38 892.632 1334.38 853.049C1334.38 808.257 1352.21 771.278 1387.89 742.112C1423.83 712.684 1470.44 697.971 1527.73 697.971C1566.8 697.971 1601.56 705.523 1632.03 720.627C1662.76 735.731 1686.46 756.565 1703.12 783.127C1720.05 809.69 1728.52 838.726 1728.52 870.237H1653.12C1653.12 835.862 1642.19 808.908 1620.31 789.377C1598.44 769.585 1567.58 759.69 1527.73 759.69C1490.76 759.69 1461.85 767.893 1441.02 784.299C1420.44 800.445 1410.16 822.971 1410.16 851.877C1410.16 875.054 1419.92 894.716 1439.45 910.862C1459.24 926.747 1492.71 941.33 1539.84 954.612C1587.24 967.893 1624.22 982.606 1650.78 998.752C1677.6 1014.64 1697.4 1033.26 1710.16 1054.61C1723.18 1075.97 1729.69 1101.1 1729.69 1130C1729.69 1176.1 1711.72 1213.08 1675.78 1240.94C1639.84 1268.54 1591.8 1282.35 1531.64 1282.35C1492.58 1282.35 1456.12 1274.92 1422.27 1260.08C1388.41 1244.98 1362.24 1224.4 1343.75 1198.36C1325.52 1172.32 1316.41 1142.76 1316.41 1109.69H1391.8C1391.8 1144.06 1404.43 1171.28 1429.69 1191.33C1455.21 1211.12 1489.19 1221.02 1531.64 1221.02C1571.22 1221.02 1601.56 1212.94 1622.66 1196.8C1643.75 1180.65 1654.3 1158.65 1654.3 1130.78C1654.3 1102.92 1644.53 1081.43 1625 1066.33C1605.47 1050.97 1570.05 1035.86 1518.75 1021.02Z" fill="url(#paint0_linear)"/>
<path d="M301.172 1274.53V705.783H461.719C511.198 705.783 554.948 716.721 592.969 738.596C630.99 760.471 660.286 791.591 680.859 831.955C701.693 872.32 712.24 918.674 712.5 971.018V1007.35C712.5 1060.99 702.083 1108 681.25 1148.36C660.677 1188.73 631.12 1219.72 592.578 1241.33C554.297 1262.94 509.635 1274.01 458.594 1274.53H301.172ZM376.172 767.502V1213.21H455.078C512.891 1213.21 557.812 1195.24 589.844 1159.3C622.135 1123.36 638.281 1072.19 638.281 1005.78V972.58C638.281 907.997 623.047 857.867 592.578 822.19C562.37 786.252 519.401 768.023 463.672 767.502H376.172ZM826.172 1274.53V705.783H986.719C1036.2 705.783 1079.95 716.721 1117.97 738.596C1155.99 760.471 1185.29 791.591 1205.86 831.955C1226.69 872.32 1237.24 918.674 1237.5 971.018V1007.35C1237.5 1060.99 1227.08 1108 1206.25 1148.36C1185.68 1188.73 1156.12 1219.72 1117.58 1241.33C1079.3 1262.94 1034.64 1274.01 983.594 1274.53H826.172ZM901.172 767.502V1213.21H980.078C1037.89 1213.21 1082.81 1195.24 1114.84 1159.3C1147.14 1123.36 1163.28 1072.19 1163.28 1005.78V972.58C1163.28 907.997 1148.05 857.867 1117.58 822.19C1087.37 786.252 1044.4 768.023 988.672 767.502H901.172ZM1518.75 1021.02C1454.43 1002.53 1407.55 979.872 1378.12 953.049C1348.96 925.966 1334.38 892.632 1334.38 853.049C1334.38 808.257 1352.21 771.278 1387.89 742.112C1423.83 712.684 1470.44 697.971 1527.73 697.971C1566.8 697.971 1601.56 705.523 1632.03 720.627C1662.76 735.731 1686.46 756.565 1703.12 783.127C1720.05 809.69 1728.52 838.726 1728.52 870.237H1653.12C1653.12 835.862 1642.19 808.908 1620.31 789.377C1598.44 769.585 1567.58 759.69 1527.73 759.69C1490.76 759.69 1461.85 767.893 1441.02 784.299C1420.44 800.445 1410.16 822.971 1410.16 851.877C1410.16 875.054 1419.92 894.716 1439.45 910.862C1459.24 926.747 1492.71 941.33 1539.84 954.612C1587.24 967.893 1624.22 982.606 1650.78 998.752C1677.6 1014.64 1697.4 1033.26 1710.16 1054.61C1723.18 1075.97 1729.69 1101.1 1729.69 1130C1729.69 1176.1 1711.72 1213.08 1675.78 1240.94C1639.84 1268.54 1591.8 1282.35 1531.64 1282.35C1492.58 1282.35 1456.12 1274.92 1422.27 1260.08C1388.41 1244.98 1362.24 1224.4 1343.75 1198.36C1325.52 1172.32 1316.41 1142.76 1316.41 1109.69H1391.8C1391.8 1144.06 1404.43 1171.28 1429.69 1191.33C1455.21 1211.12 1489.19 1221.02 1531.64 1221.02C1571.22 1221.02 1601.56 1212.94 1622.66 1196.8C1643.75 1180.65 1654.3 1158.65 1654.3 1130.78C1654.3 1102.92 1644.53 1081.43 1625 1066.33C1605.47 1050.97 1570.05 1035.86 1518.75 1021.02Z" fill="url(#paint1_linear)"/>
<mask id="mask0" mask-type="alpha" maskUnits="userSpaceOnUse" x="-164" y="-520" width="2724" height="3170">
<path fill-rule="evenodd" clip-rule="evenodd" d="M1265.13 1155.99C1267.55 1149.93 1269.8 1143.76 1271.88 1137.48H1264.34C1264.34 1143.75 1264.61 1149.92 1265.13 1155.99Z" fill="white"/>
<path fill-rule="evenodd" clip-rule="evenodd" d="M1271.88 1137.48H1264.34C1264.34 1143.75 1264.61 1149.92 1265.13 1155.99C1267.55 1149.93 1269.8 1143.76 1271.88 1137.48Z" fill="white"/>
<path fill-rule="evenodd" clip-rule="evenodd" d="M-65.4638 -519.545L-163.488 2649.91L2559.41 2557.33V-394.292L-65.4638 -519.545ZM252.051 632.596V1343.53H448.828C512.63 1342.88 568.457 1329.05 616.309 1302.03C664.486 1275.01 701.432 1236.27 727.148 1185.82C753.19 1135.36 766.211 1076.61 766.211 1009.55V964.139C765.885 898.709 752.702 840.766 726.66 790.311C700.944 739.855 664.323 700.955 616.797 673.612C569.271 646.268 514.583 632.596 452.734 632.596H252.051ZM777.14 1342V631.063H977.823C1039.67 631.063 1094.36 644.734 1141.89 672.078C1189.41 699.422 1226.03 738.322 1251.75 788.777C1277.79 839.233 1290.97 897.176 1291.3 962.606V1008.02C1291.3 1055.3 1284.83 1098.45 1271.88 1137.48L1341.49 941.678C1305.03 907.824 1286.8 866.157 1286.8 816.678C1286.8 760.688 1309.1 714.464 1353.7 678.006C1398.62 641.222 1456.89 622.83 1528.5 622.83C1577.33 622.83 1620.79 632.27 1658.88 651.151C1697.29 670.031 1726.91 696.072 1747.74 729.276C1768.9 762.479 1779.48 798.774 1779.48 838.162L1714.46 1021.05C1732.17 1035.48 1746.2 1051.34 1756.53 1068.63C1772.81 1095.32 1780.95 1126.74 1780.95 1162.87C1780.95 1220.49 1758.48 1266.71 1713.56 1301.54C1668.64 1336.05 1608.58 1353.3 1533.39 1353.3C1484.56 1353.3 1438.99 1344.02 1396.67 1325.47C1354.35 1306.59 1321.64 1280.87 1298.52 1248.32C1279.19 1220.7 1268.06 1189.93 1265.13 1155.99C1261.26 1165.7 1256.96 1175.13 1252.24 1184.29C1226.52 1234.74 1189.57 1273.48 1141.4 1300.5C1093.55 1327.51 1037.72 1341.35 973.917 1342H777.14Z" fill="white"/>
</mask>
<g mask="url(#mask0)">
<path d="M1196.04 -66.4061L1468.01 644.531L1739.99 1355.47L2011.96 2066.41" stroke="url(#paint2_linear)" stroke-width="70"/>
<path d="M1472.27 -66.4061L1744.24 644.531L2016.21 1355.47L2288.18 2066.41" stroke="url(#paint3_linear)" stroke-width="50"/>
<path d="M1701.13 -66.4061L1973.11 644.531L2245.08 1355.47L2517.05 2066.41" stroke="url(#paint4_linear)" stroke-width="30"/>
<path d="M0 -64.8727L271.973 646.065L543.945 1357L815.918 2067.94" stroke="url(#paint5_linear)" stroke-width="70"/>
<path d="M-292.871 -64.8727L-20.8979 646.065L251.074 1357L523.047 2067.94" stroke="url(#paint6_linear)" stroke-width="50"/>
<path d="M-521.738 -64.8727L-249.765 646.065L22.2072 1357L294.18 2067.94" stroke="url(#paint7_linear)" stroke-width="30"/>
</g>
</g>
<defs>
<linearGradient id="paint0_linear" x1="997.656" y1="532.533" x2="997.656" y2="1470.53" gradientUnits="userSpaceOnUse">
<stop stop-color="#A1CC65"/>
<stop offset="1" stop-color="#BDD96B"/>
</linearGradient>
<linearGradient id="paint1_linear" x1="997.656" y1="532.533" x2="997.656" y2="1470.53" gradientUnits="userSpaceOnUse">
<stop stop-color="#A1CC65"/>
<stop offset="1" stop-color="#BDD96B"/>
</linearGradient>
<linearGradient id="paint2_linear" x1="1609" y1="-66.4061" x2="1609" y2="2076.41" gradientUnits="userSpaceOnUse">
<stop stop-color="#A1CC65"/>
<stop offset="1" stop-color="#BDD96B"/>
</linearGradient>
<linearGradient id="paint3_linear" x1="1885.22" y1="-66.4061" x2="1885.22" y2="2076.41" gradientUnits="userSpaceOnUse">
<stop stop-color="#A1CC65"/>
<stop offset="1" stop-color="#BDD96B"/>
</linearGradient>
<linearGradient id="paint4_linear" x1="2114.09" y1="-66.4061" x2="2114.09" y2="2076.41" gradientUnits="userSpaceOnUse">
<stop stop-color="#A1CC65"/>
<stop offset="1" stop-color="#BDD96B"/>
</linearGradient>
<linearGradient id="paint5_linear" x1="412.959" y1="-64.8727" x2="412.959" y2="2077.94" gradientUnits="userSpaceOnUse">
<stop stop-color="#A1CC65"/>
<stop offset="1" stop-color="#BDD96B"/>
</linearGradient>
<linearGradient id="paint6_linear" x1="120.088" y1="-64.8727" x2="120.088" y2="2077.94" gradientUnits="userSpaceOnUse">
<stop stop-color="#A1CC65"/>
<stop offset="1" stop-color="#BDD96B"/>
</linearGradient>
<linearGradient id="paint7_linear" x1="-108.779" y1="-64.8727" x2="-108.779" y2="2077.94" gradientUnits="userSpaceOnUse">
<stop stop-color="#A1CC65"/>
<stop offset="1" stop-color="#BDD96B"/>
</linearGradient>
<clipPath id="clip0">
<rect width="2000" height="2000" fill="white"/>
</clipPath>
</defs>
</svg>
