<svg width="2048" height="2048" viewBox="0 0 2048 2048" fill="none" xmlns="http://www.w3.org/2000/svg">
<g clip-path="url(#clip0)">
<rect width="2048" height="2048" fill="url(#paint0_linear)"/>
<rect x="1005" y="295" width="574" height="963" rx="95" fill="url(#paint1_linear)" stroke="white" stroke-width="10"/>
<rect x="1063" y="347" width="574" height="963" rx="95" fill="url(#paint2_linear)" stroke="white" stroke-width="10"/>
<rect x="1121" y="399" width="574" height="963" rx="95" fill="url(#paint3_linear)" stroke="white" stroke-width="10"/>
<rect x="1179" y="451" width="574" height="963" rx="95" fill="url(#paint4_linear)" stroke="white" stroke-width="10"/>
<path d="M1400.7 568.9C1390.43 568.9 1381.8 570.767 1374.8 574.5C1367.8 578.233 1361.97 583.483 1357.3 590.25C1352.87 596.783 1349.6 604.717 1347.5 614.05C1345.63 623.15 1344.7 633.3 1344.7 644.5C1344.7 670.4 1348.78 689.533 1356.95 701.9C1365.12 714.033 1377.13 720.1 1393 720.1C1395.57 720.1 1398.37 719.983 1401.4 719.75C1404.43 719.517 1407.23 719.167 1409.8 718.7V639.6H1452.85V747.75C1447.72 749.617 1439.67 751.717 1428.7 754.05C1417.97 756.383 1404.9 757.55 1389.5 757.55C1375.97 757.55 1363.72 755.217 1352.75 750.55C1342.02 745.65 1332.8 738.533 1325.1 729.2C1317.4 719.633 1311.45 707.85 1307.25 693.85C1303.05 679.617 1300.95 663.167 1300.95 644.5C1300.95 626.067 1303.4 609.85 1308.3 595.85C1313.2 581.617 1319.85 569.717 1328.25 560.15C1336.65 550.583 1346.57 543.467 1358 538.8C1369.43 533.9 1381.68 531.45 1394.75 531.45C1403.15 531.45 1410.62 532.15 1417.15 533.55C1423.92 534.717 1429.75 536.117 1434.65 537.75C1439.55 539.383 1443.52 541.133 1446.55 543C1449.82 544.867 1452.27 546.267 1453.9 547.2L1442.7 581.5C1437.57 578.233 1431.27 575.317 1423.8 572.75C1416.33 570.183 1408.63 568.9 1400.7 568.9ZM1457.4 803.9C1484.93 803.9 1506.28 809.617 1521.45 821.05C1536.62 832.25 1544.2 850.683 1544.2 876.35C1544.2 902.25 1536.5 921.033 1521.1 932.7C1505.93 944.133 1484.35 949.85 1456.35 949.85H1440.95V1023H1397.9V809.15C1402.1 808.217 1406.77 807.4 1411.9 806.7C1417.27 806 1422.63 805.533 1428 805.3C1433.37 804.833 1438.62 804.483 1443.75 804.25C1448.88 804.017 1453.43 803.9 1457.4 803.9ZM1462.3 841.35C1459.73 841.35 1456.12 841.467 1451.45 841.7C1447.02 841.7 1443.52 841.933 1440.95 842.4V912.4H1458.45C1472.22 912.4 1482.6 909.717 1489.6 904.35C1496.6 898.75 1500.1 889.3 1500.1 876C1500.1 863.4 1496.6 854.533 1489.6 849.4C1482.83 844.033 1473.73 841.35 1462.3 841.35ZM1455.6 1304.6H1552.4V1326H1455.6V1304.6ZM1555.6 1304.6H1652.4V1326H1555.6V1304.6Z" fill="white"/>
<rect x="1507.89" y="1570.12" width="511" height="858" rx="95" transform="rotate(75 1507.89 1570.12)" fill="url(#paint5_linear)" stroke="white" stroke-width="10"/>
<path d="M1368.8 1860.67C1356.18 1864.05 1345.01 1864.75 1335.3 1862.76C1325.81 1860.72 1317.48 1856.67 1310.3 1850.62C1303.41 1844.74 1297.48 1837.03 1292.51 1827.49C1287.82 1818.11 1283.94 1807.68 1280.86 1796.19C1278.39 1786.94 1276.38 1777.21 1274.85 1767C1273.1 1756.84 1271.93 1746.64 1271.37 1736.41L1474.55 1681.96C1478.01 1689.49 1481.47 1697.86 1484.9 1707.09C1488.57 1716.25 1491.64 1725.46 1494.11 1734.7C1498.34 1750.47 1500.09 1763.77 1499.37 1774.6C1498.87 1785.36 1496.67 1794.28 1492.77 1801.37C1489.1 1808.39 1484.27 1813.79 1478.27 1817.57C1472.28 1821.35 1466.02 1824.12 1459.48 1825.87C1449.56 1828.52 1440.11 1828.4 1431.12 1825.5C1422.19 1822.82 1414.38 1818.02 1407.7 1811.12C1406.32 1826.7 1401.9 1838.16 1394.44 1845.47C1387.04 1853.01 1378.49 1858.08 1368.8 1860.67ZM1370.75 1754.35L1313.95 1769.56C1314.28 1772.62 1314.79 1775.86 1315.47 1779.3C1316.21 1782.97 1317.04 1786.49 1317.94 1789.87C1319.21 1794.61 1320.79 1799.14 1322.67 1803.46C1324.78 1807.73 1327.3 1811.28 1330.24 1814.12C1333.46 1817.12 1337.28 1819.23 1341.72 1820.46C1346.38 1821.63 1351.75 1821.4 1357.84 1819.77C1367.98 1817.05 1374.32 1811.85 1376.85 1804.16C1379.66 1796.65 1379.62 1787.48 1376.72 1776.66L1370.75 1754.35ZM1409.58 1761.33C1412.42 1771.93 1416.81 1779.32 1422.77 1783.53C1428.95 1787.67 1436.1 1788.65 1444.21 1786.48C1449.17 1785.15 1452.91 1783.3 1455.41 1780.94C1458.15 1778.52 1459.94 1775.74 1460.79 1772.61C1461.87 1769.43 1462.15 1765.97 1461.64 1762.24C1461.35 1758.45 1460.69 1754.64 1459.66 1750.81C1458.82 1747.66 1457.83 1744.42 1456.7 1741.1C1455.56 1737.78 1454.41 1734.83 1453.24 1732.24L1405.23 1745.11L1409.58 1761.33ZM1043.01 1958.48C1039.39 1944.95 1038.14 1933.09 1039.27 1922.88C1040.69 1912.84 1044.16 1904.18 1049.7 1896.9C1055.24 1889.61 1062.66 1883.52 1071.98 1878.61C1081.29 1873.7 1092.03 1869.61 1104.2 1866.35L1237.74 1830.57L1248.97 1872.49L1118.14 1907.55C1109.35 1909.9 1102.03 1912.34 1096.19 1914.88C1090.57 1917.35 1086.23 1920.08 1083.17 1923.08C1080.16 1926.3 1078.39 1930.03 1077.84 1934.29C1077.29 1938.54 1077.8 1943.6 1079.37 1949.46C1080.94 1955.32 1083.02 1959.95 1085.63 1963.36C1088.23 1966.77 1091.64 1969.12 1095.85 1970.41C1100.28 1971.63 1105.55 1971.91 1111.65 1971.24C1117.98 1970.52 1125.54 1968.97 1134.33 1966.62L1264.83 1931.65L1275.97 1973.23L1142.43 2009.02C1130.26 2012.28 1118.91 2014.11 1108.39 2014.51C1097.87 2014.92 1088.36 2013.24 1079.87 2009.47C1071.37 2005.71 1063.97 1999.72 1057.66 1991.51C1051.58 1983.24 1046.69 1972.22 1043.01 1958.48ZM992.877 2085.69C990.22 2075.77 986.182 2067.91 980.764 2062.12C975.347 2056.32 968.766 2052.05 961.022 2049.29C953.564 2046.7 945.055 2045.6 935.496 2045.98C926.223 2046.54 916.178 2048.26 905.359 2051.16C880.342 2057.86 862.917 2066.76 853.086 2077.85C843.479 2088.88 840.73 2102.06 844.836 2117.38C845.5 2119.86 846.338 2122.54 847.348 2125.4C848.359 2128.27 849.422 2130.89 850.537 2133.25L926.941 2112.77L938.083 2154.36L833.619 2182.35C830.487 2177.87 826.375 2170.64 821.283 2160.65C816.251 2150.89 811.742 2138.57 807.756 2123.69C804.254 2110.62 803.337 2098.18 805.006 2086.38C806.961 2074.75 811.45 2064 818.472 2054.15C825.72 2044.24 835.562 2035.44 847.998 2027.76C860.659 2020.02 876.005 2013.73 894.036 2008.9C911.841 2004.13 928.139 2002.3 942.93 2003.41C957.947 2004.46 971.163 2007.8 982.577 2013.44C993.992 2019.08 1003.43 2026.81 1010.9 2036.65C1018.59 2046.43 1024.13 2057.62 1027.51 2070.25C1029.69 2078.36 1030.94 2085.75 1031.28 2092.43C1031.9 2099.26 1032.06 2105.26 1031.75 2110.42C1031.44 2115.57 1030.78 2119.86 1029.76 2123.27C1028.8 2126.91 1028.09 2129.64 1027.61 2131.46L991.577 2129.52C993.403 2123.71 994.59 2116.87 995.137 2109C995.684 2101.12 994.93 2093.35 992.877 2085.69Z" fill="white"/>
<rect x="1175.31" y="1164.04" width="511" height="858" rx="95" transform="rotate(50 1175.31 1164.04)" fill="url(#paint6_linear)" stroke="white" stroke-width="10"/>
<path d="M1012.3 1457.34C1009.21 1462.37 1005.15 1468.74 1000.13 1476.44C995.27 1484.34 989.989 1492.77 984.284 1501.74C978.578 1510.7 972.77 1519.75 966.86 1528.89C960.95 1538.03 955.568 1546.55 950.712 1554.45C960.327 1550.56 970.232 1546.6 980.428 1542.57C990.827 1538.37 1000.73 1534.41 1010.14 1530.69C1019.76 1526.8 1028.69 1523.13 1036.94 1519.69C1045.19 1516.25 1052.15 1513.54 1057.81 1511.58L1084.04 1542.83C1068.69 1558.15 1053.67 1573.02 1038.96 1587.44C1024.44 1602.07 1009.75 1616.31 994.911 1630.15C980.447 1644.03 965.608 1657.87 950.393 1671.68C935.382 1685.32 919.877 1699.2 903.877 1713.32L874.823 1678.7L1023.75 1556.87L923.931 1600.94L900.79 1573.36L962.302 1483.63L816.201 1608.84L787.147 1574.21C803.186 1561.8 819.839 1548.87 837.104 1535.43C854.54 1522.19 871.874 1509.03 889.107 1495.97C906.339 1482.9 923.146 1470.36 939.528 1458.36C956.082 1446.56 971.598 1435.8 986.076 1426.09L1012.3 1457.34ZM925.989 1739.68L1115.66 1580.52L1212.08 1695.43L1180.83 1721.65L1116.03 1644.44L1073.44 1680.18L1129.75 1747.28L1098.49 1773.51L1042.19 1706.4L988.869 1751.14L1059.32 1835.1L1028.06 1861.32L925.989 1739.68Z" fill="white"/>
<rect x="706.25" y="940.645" width="511" height="858" rx="95" transform="rotate(25 706.25 940.645)" fill="url(#paint7_linear)" stroke="white" stroke-width="10"/>
<path d="M757.983 1076.8L794.625 1093.88L790.737 1102.22L743.846 1080.35L779.901 1003.03L790.15 1007.81L757.983 1076.8ZM811.501 1111.9L801.676 1107.32L828.47 1049.86L838.294 1054.44L811.501 1111.9ZM834.78 1034.25C835.523 1032.66 836.628 1031.53 838.096 1030.88C839.599 1030.25 841.306 1030.37 843.218 1031.27C845.13 1032.16 846.325 1033.38 846.805 1034.94C847.284 1036.5 847.153 1038.08 846.41 1039.67C845.667 1041.27 844.552 1042.36 843.066 1042.96C841.579 1043.56 839.88 1043.42 837.968 1042.52C836.057 1041.63 834.853 1040.43 834.357 1038.9C833.896 1037.39 834.037 1035.84 834.78 1034.25ZM873.883 1054.1L867.395 1068.01L878.122 1073.01L874.581 1080.61L863.854 1075.61L847.238 1111.24C846.165 1113.54 845.834 1115.5 846.245 1117.11C846.673 1118.69 848.037 1120.02 850.338 1121.09C851.471 1121.62 853.128 1122.13 855.309 1122.63L851.594 1130.6C848.68 1130.1 846.001 1129.28 843.558 1128.14C839.168 1126.1 836.477 1123.22 835.485 1119.53C834.493 1115.83 835.136 1111.54 837.414 1106.66L854.03 1071.03L843.568 1066.15L847.109 1058.55L857.571 1063.43L864.059 1049.52L873.883 1054.1ZM886.201 1148.03C878.412 1144.4 873.264 1138.89 870.755 1131.52C868.263 1124.1 869.015 1116.11 873.01 1107.55L873.852 1105.74C876.51 1100.04 879.959 1095.46 884.198 1092.01C888.49 1088.54 893.169 1086.45 898.235 1085.76C903.353 1085.04 908.196 1085.75 912.763 1087.88C920.233 1091.36 924.892 1096.53 926.739 1103.38C928.587 1110.23 927.372 1118.24 923.097 1127.41L921.19 1131.5L882.265 1113.35C879.765 1119.08 879.273 1124.43 880.79 1129.41C882.358 1134.36 885.585 1137.98 890.471 1140.26C893.94 1141.87 897.209 1142.54 900.277 1142.24C903.344 1141.95 906.326 1141.06 909.221 1139.56L913.042 1147.03C904.777 1152.19 895.83 1152.52 886.201 1148.03ZM908.999 1095.95C905.034 1094.1 901.029 1094 896.985 1095.65C892.957 1097.26 889.411 1100.52 886.347 1105.43L915.13 1118.85L915.476 1118.1C917.521 1112.98 917.975 1108.49 916.839 1104.65C915.719 1100.76 913.106 1097.86 908.999 1095.95ZM970.979 1127.05C969.608 1126.11 968.055 1125.23 966.32 1124.42C959.877 1121.42 954.225 1122.12 949.365 1126.54L930.347 1167.32L920.523 1162.74L947.316 1105.28L956.875 1109.74L953.939 1116.45C959.554 1112.82 965.318 1112.38 971.23 1115.14C973.142 1116.03 974.478 1116.96 975.238 1117.91L970.979 1127.05ZM990.726 1195.48C990.688 1194.08 991.169 1191.85 992.169 1188.78C985.39 1191.39 978.832 1191.22 972.495 1188.27C966.83 1185.63 962.918 1181.86 960.757 1176.98C958.648 1172.07 958.741 1167.16 961.036 1162.24C963.826 1156.25 968.254 1152.67 974.321 1151.49C980.44 1150.29 987.623 1151.62 995.872 1155.46L1005.43 1159.92L1007.54 1155.41C1009.14 1151.97 1009.38 1148.77 1008.27 1145.79C1007.17 1142.78 1004.63 1140.34 1000.62 1138.48C997.12 1136.84 993.769 1136.36 990.571 1137.02C987.374 1137.69 985.189 1139.28 984.017 1141.79L974.14 1137.18C975.477 1134.32 977.773 1132.03 981.03 1130.31C984.338 1128.58 988.089 1127.74 992.285 1127.8C996.517 1127.88 1000.72 1128.89 1004.9 1130.84C1011.52 1133.93 1015.93 1138.01 1018.13 1143.09C1020.35 1148.13 1020.17 1153.59 1017.61 1159.46L1005.28 1185.9C1002.82 1191.18 1001.53 1195.69 1001.42 1199.43L1001.03 1200.28L990.726 1195.48ZM977.915 1180.39C980.995 1181.82 984.287 1182.39 987.792 1182.08C991.296 1181.78 994.262 1180.64 996.69 1178.67L1002.19 1166.88L994.487 1163.29C982.45 1157.67 974.789 1158.39 971.504 1165.44C970.067 1168.52 969.972 1171.4 971.216 1174.09C972.46 1176.79 974.693 1178.88 977.915 1180.39ZM1025.08 1211.5L1015.26 1206.92L1053.3 1125.35L1063.12 1129.93L1025.08 1211.5ZM1051.53 1223.83L1041.71 1219.25L1079.74 1137.68L1089.57 1142.26L1051.53 1223.83ZM1092.81 1225.56L1126.28 1188.73L1136.79 1193.63L1082.76 1249.19C1074.73 1257.08 1066.82 1259.21 1059.03 1255.58L1057.25 1254.55L1053.9 1252.15L1057.62 1244.19L1060.17 1245.64C1063.5 1247.19 1066.4 1247.72 1068.87 1247.24C1071.37 1246.77 1074.06 1245.02 1076.93 1242.01L1081.83 1237.18L1087.83 1170.8L1098.56 1175.81L1092.81 1225.56ZM711.369 1150.83L681.48 1214.93C676.33 1225.98 668.745 1229.16 658.726 1224.49C656.566 1223.48 654.715 1222.23 653.171 1220.74L656.836 1212.88C657.836 1213.69 659.257 1214.52 661.098 1215.38C663.293 1216.41 665.238 1216.58 666.932 1215.9C668.645 1215.28 670.187 1213.5 671.557 1210.56L701.545 1146.25L711.369 1150.83ZM707.643 1130.54C708.369 1128.98 709.466 1127.88 710.934 1127.23C712.453 1126.56 714.151 1126.66 716.027 1127.53C717.939 1128.42 719.135 1129.65 719.614 1131.21C720.094 1132.77 719.962 1134.35 719.219 1135.94C718.476 1137.53 717.362 1138.63 715.875 1139.23C714.389 1139.83 712.689 1139.68 710.778 1138.79C708.866 1137.9 707.68 1136.7 707.219 1135.19C706.759 1133.68 706.9 1132.13 707.643 1130.54ZM738.577 1226.55C732.657 1229.27 725.997 1228.9 718.598 1225.45C712.473 1222.59 708.626 1218.64 707.055 1213.6C705.536 1208.54 706.385 1202.51 709.602 1195.52L727.035 1158.14L736.859 1162.72L719.55 1199.84C715.489 1208.55 716.998 1214.55 724.079 1217.85C731.584 1221.35 737.88 1220.89 742.967 1216.45L762.455 1174.65L772.279 1179.24L745.486 1236.69L736.14 1232.34L738.577 1226.55ZM801.024 1244.04C802.262 1241.38 802.21 1238.86 800.869 1236.47C799.58 1234.05 796.687 1231.15 792.191 1227.76C787.729 1224.39 784.376 1221.28 782.131 1218.42C779.922 1215.58 778.588 1212.8 778.129 1210.09C777.706 1207.39 778.154 1204.62 779.475 1201.79C781.671 1197.08 785.51 1194.03 790.994 1192.62C796.514 1191.23 802.371 1191.97 808.566 1194.86C815.081 1197.9 819.571 1202.04 822.039 1207.29C824.542 1212.55 824.572 1217.8 822.129 1223.04L812.251 1218.43C813.506 1215.74 813.437 1212.89 812.043 1209.87C810.686 1206.86 808.272 1204.55 804.803 1202.94C801.227 1201.27 798.067 1200.74 795.323 1201.36C792.578 1201.98 790.62 1203.54 789.448 1206.06C788.342 1208.43 788.446 1210.65 789.761 1212.73C791.076 1214.81 793.921 1217.54 798.295 1220.91C802.704 1224.3 806.076 1227.47 808.411 1230.41C810.745 1233.36 812.135 1236.25 812.579 1239.08C813.076 1241.9 812.606 1244.85 811.17 1247.93C808.776 1253.06 804.799 1256.23 799.24 1257.43C793.697 1258.59 787.651 1257.65 781.101 1254.6C776.499 1252.45 772.807 1249.74 770.026 1246.46C767.246 1243.18 765.523 1239.62 764.859 1235.77C764.246 1231.91 764.733 1228.28 766.317 1224.88L776.142 1229.46C774.783 1232.84 774.872 1236.07 776.407 1239.15C777.993 1242.22 780.805 1244.69 784.84 1246.58C788.558 1248.31 791.878 1248.95 794.802 1248.51C797.778 1248.04 799.851 1246.55 801.024 1244.04ZM863.149 1204.67L856.661 1218.58L867.388 1223.59L863.847 1231.18L853.12 1226.18L836.504 1261.81C835.431 1264.11 835.1 1266.07 835.512 1267.68C835.939 1269.26 837.304 1270.59 839.605 1271.66C840.738 1272.19 842.394 1272.7 844.575 1273.2L840.861 1281.17C837.946 1280.67 835.267 1279.85 832.825 1278.71C828.435 1276.67 825.744 1273.8 824.751 1270.1C823.759 1266.41 824.402 1262.12 826.68 1257.23L843.296 1221.6L832.835 1216.72L836.376 1209.12L846.837 1214L853.325 1200.09L863.149 1204.67ZM925.706 1233.84L919.218 1247.75L929.945 1252.76L926.404 1260.35L915.677 1255.35L899.061 1290.98C897.988 1293.28 897.657 1295.24 898.068 1296.85C898.496 1298.43 899.86 1299.76 902.161 1300.83C903.294 1301.36 904.951 1301.87 907.131 1302.37L903.417 1310.34C900.502 1309.84 897.824 1309.02 895.381 1307.88C890.991 1305.84 888.3 1302.97 887.308 1299.27C886.316 1295.58 886.959 1291.29 889.237 1286.4L905.853 1250.77L895.391 1245.89L898.932 1238.3L909.394 1243.17L915.881 1229.26L925.706 1233.84ZM948.049 1269.67C954.896 1266.35 961.807 1266.32 968.781 1269.57C980.924 1275.24 983.855 1284.94 977.572 1298.69L959.867 1336.66L950.042 1332.08L967.772 1294.06C969.669 1289.9 970.141 1286.39 969.189 1283.53C968.272 1280.69 965.849 1278.36 961.92 1276.52C958.733 1275.04 955.54 1274.58 952.341 1275.16C949.141 1275.74 946.224 1277.09 943.591 1279.23L924.499 1320.17L914.675 1315.59L952.711 1234.02L962.535 1238.6L948.049 1269.67ZM997.925 1355.7C990.136 1352.07 984.988 1346.57 982.479 1339.19C979.988 1331.78 980.739 1323.79 984.734 1315.22L985.576 1313.42C988.234 1307.72 991.683 1303.14 995.922 1299.69C1000.21 1296.21 1004.89 1294.13 1009.96 1293.43C1015.08 1292.71 1019.92 1293.42 1024.49 1295.55C1031.96 1299.03 1036.62 1304.2 1038.46 1311.05C1040.31 1317.91 1039.1 1325.92 1034.82 1335.09L1032.91 1339.17L993.989 1321.02C991.489 1326.75 990.998 1332.11 992.514 1337.08C994.082 1342.04 997.309 1345.65 1002.2 1347.93C1005.66 1349.55 1008.93 1350.21 1012 1349.92C1015.07 1349.62 1018.05 1348.73 1020.95 1347.23L1024.77 1354.71C1016.5 1359.86 1007.55 1360.19 997.925 1355.7ZM1020.72 1303.62C1016.76 1301.77 1012.75 1301.67 1008.71 1303.32C1004.68 1304.93 1001.14 1308.19 998.072 1313.1L1026.85 1326.52L1027.2 1325.78C1029.25 1320.65 1029.7 1316.17 1028.56 1312.32C1027.44 1308.44 1024.83 1305.54 1020.72 1303.62ZM651.616 1312.94C655.793 1303.98 661.182 1297.83 667.784 1294.49C674.403 1291.11 681.128 1291.01 687.961 1294.2C694.971 1297.47 699.285 1302.5 700.903 1309.29L704.353 1303.14L713.327 1307.32L687.178 1363.4C683.711 1370.83 678.766 1375.66 672.343 1377.88C665.956 1380.12 659.045 1379.5 651.61 1376.04C647.468 1374.11 643.827 1371.33 640.688 1367.71C637.548 1364.09 635.652 1360.26 634.999 1356.2L642.846 1352.68C644.632 1359.85 648.57 1364.86 654.659 1367.7C659.438 1369.93 663.783 1370.31 667.693 1368.86C671.638 1367.42 674.75 1364.26 677.028 1359.38L679.331 1354.44C673.288 1357.14 666.868 1356.9 660.071 1353.73C653.344 1350.6 649.155 1345.35 647.503 1337.98C645.887 1330.63 647.258 1322.29 651.616 1312.94ZM660.974 1318.66C657.953 1325.14 656.903 1330.86 657.825 1335.81C658.763 1340.73 661.622 1344.31 666.401 1346.54C672.597 1349.42 678.458 1348.73 683.986 1344.46L696.219 1318.22C695.769 1311.33 692.534 1306.48 686.516 1303.68C681.737 1301.45 677.135 1301.57 672.711 1304.03C668.287 1306.49 664.374 1311.37 660.974 1318.66ZM751.859 1336.02C750.488 1335.08 748.935 1334.21 747.2 1333.4C740.757 1330.39 735.105 1331.1 730.245 1335.51L711.227 1376.3L701.403 1371.71L728.196 1314.26L737.755 1318.71L734.819 1325.43C740.434 1321.79 746.198 1321.36 752.11 1324.11C754.022 1325.01 755.358 1325.93 756.118 1326.89L751.859 1336.02ZM771.606 1404.45C771.568 1403.05 772.049 1400.82 773.049 1397.75C766.27 1400.37 759.712 1400.2 753.374 1397.24C747.71 1394.6 743.797 1390.84 741.637 1385.95C739.528 1381.04 739.621 1376.13 741.916 1371.21C744.706 1365.23 749.134 1361.65 755.201 1360.47C761.32 1359.27 768.503 1360.59 776.752 1364.44L786.311 1368.9L788.416 1364.38C790.017 1360.95 790.261 1357.74 789.149 1354.77C788.053 1351.76 785.505 1349.32 781.505 1347.45C778 1345.82 774.649 1345.33 771.451 1346C768.254 1346.66 766.069 1348.25 764.897 1350.77L755.02 1346.16C756.357 1343.29 758.653 1341 761.909 1339.29C765.217 1337.55 768.969 1336.72 773.165 1336.78C777.396 1336.85 781.601 1337.87 785.778 1339.81C792.399 1342.9 796.809 1346.98 799.01 1352.06C801.228 1357.1 801.053 1362.56 798.488 1368.43L786.156 1394.88C783.696 1400.15 782.412 1404.66 782.305 1408.41L781.909 1409.25L771.606 1404.45ZM758.795 1389.36C761.875 1390.8 765.167 1391.36 768.672 1391.06C772.176 1390.75 775.142 1389.61 777.57 1387.64L783.067 1375.85L775.367 1372.26C763.33 1366.65 755.669 1367.37 752.384 1374.41C750.947 1377.49 750.852 1380.38 752.096 1383.07C753.34 1385.76 755.573 1387.86 758.795 1389.36ZM856.927 1410.04C852.85 1418.78 847.564 1424.89 841.071 1428.37C834.578 1431.85 827.915 1432 821.082 1428.81C814.108 1425.56 809.652 1420.79 807.715 1414.5L794.814 1442.17L784.99 1437.59L822.084 1358.04L831.059 1362.22L828.565 1368.82C834.877 1365.73 841.591 1365.84 848.707 1369.16C855.61 1372.38 859.849 1377.52 861.422 1384.59C863.032 1391.68 861.674 1399.86 857.348 1409.13L856.927 1410.04ZM847.623 1404.34C850.644 1397.86 851.649 1392.1 850.638 1387.06C849.626 1382.02 846.713 1378.38 841.898 1376.13C835.95 1373.36 830.26 1373.92 824.826 1377.81L812.024 1405.26C812.519 1411.87 815.794 1416.59 821.847 1419.41C826.556 1421.61 831.158 1421.49 835.652 1419.06C840.199 1416.61 844.189 1411.7 847.623 1404.34ZM889.734 1398.05C896.581 1394.74 903.492 1394.7 910.467 1397.96C922.61 1403.62 925.54 1413.33 919.257 1427.08L901.552 1465.05L891.728 1460.46L909.458 1422.44C911.354 1418.28 911.826 1414.78 910.874 1411.92C909.958 1409.08 907.535 1406.74 903.605 1404.91C900.419 1403.42 897.226 1402.97 894.026 1403.54C890.826 1404.12 887.91 1405.48 885.277 1407.61L866.185 1448.55L856.36 1443.97L894.396 1362.4L904.22 1366.99L889.734 1398.05ZM926.936 1476.88L917.111 1472.3L943.905 1414.84L953.729 1419.42L926.936 1476.88ZM950.215 1399.23C950.958 1397.64 952.063 1396.51 953.531 1395.86C955.034 1395.23 956.741 1395.36 958.653 1396.25C960.565 1397.14 961.76 1398.36 962.24 1399.92C962.719 1401.48 962.588 1403.06 961.845 1404.65C961.102 1406.25 959.987 1407.34 958.501 1407.94C957.014 1408.54 955.315 1408.4 953.403 1407.51C951.492 1406.61 950.288 1405.41 949.792 1403.88C949.331 1402.37 949.472 1400.82 950.215 1399.23ZM968.999 1488.03C972.503 1489.66 976.061 1490.03 979.671 1489.12C983.282 1488.22 985.971 1486.24 987.74 1483.19L997.033 1487.52C995.321 1490.73 992.727 1493.34 989.252 1495.34C985.776 1497.34 981.873 1498.41 977.543 1498.54C973.248 1498.69 969.154 1497.86 965.259 1496.05C957.435 1492.4 952.418 1486.89 950.207 1479.52C948.048 1472.14 949.081 1463.91 953.308 1454.85L954.075 1453.2C956.684 1447.61 960.03 1443.11 964.114 1439.72C968.197 1436.32 972.712 1434.31 977.658 1433.69C982.64 1433.08 987.75 1434 992.99 1436.44C999.433 1439.44 1003.88 1443.87 1006.33 1449.71C1008.81 1455.56 1008.76 1461.64 1006.17 1467.93L996.878 1463.59C998.328 1459.75 998.331 1456.04 996.889 1452.48C995.498 1448.9 992.943 1446.24 989.226 1444.51C984.234 1442.18 979.516 1442.18 975.071 1444.5C970.677 1446.81 966.896 1451.36 963.726 1458.16L962.859 1460.02C959.772 1466.64 958.758 1472.37 959.817 1477.22C960.875 1482.06 963.936 1485.67 968.999 1488.03ZM607.598 1484.84C599.809 1481.21 594.661 1475.71 592.152 1468.33C589.66 1460.92 590.412 1452.93 594.407 1444.36L595.249 1442.56C597.907 1436.86 601.356 1432.28 605.595 1428.83C609.887 1425.35 614.566 1423.27 619.632 1422.57C624.75 1421.85 629.593 1422.56 634.16 1424.69C641.63 1428.17 646.289 1433.34 648.136 1440.19C649.984 1447.05 648.769 1455.06 644.494 1464.23L642.587 1468.31L603.662 1450.16C601.162 1455.89 600.67 1461.25 602.187 1466.22C603.755 1471.18 606.982 1474.79 611.868 1477.07C615.337 1478.69 618.606 1479.35 621.674 1479.06C624.741 1478.76 627.723 1477.87 630.618 1476.37L634.439 1483.85C626.174 1489 617.227 1489.33 607.598 1484.84ZM630.396 1432.76C626.431 1430.91 622.426 1430.81 618.382 1432.46C614.354 1434.07 610.808 1437.33 607.744 1442.24L636.527 1455.66L636.873 1454.92C638.918 1449.79 639.372 1445.31 638.236 1441.46C637.116 1437.58 634.503 1434.68 630.396 1432.76ZM682.482 1499.91C683.721 1497.26 683.669 1494.73 682.328 1492.34C681.039 1489.93 678.146 1487.03 673.649 1483.64C669.188 1480.27 665.835 1477.15 663.59 1474.29C661.381 1471.45 660.046 1468.68 659.588 1465.96C659.165 1463.27 659.613 1460.5 660.934 1457.67C663.13 1452.96 666.969 1449.9 672.453 1448.49C677.973 1447.1 683.83 1447.85 690.025 1450.74C696.539 1453.78 701.03 1457.92 703.498 1463.16C706.001 1468.43 706.031 1473.68 703.588 1478.92L693.71 1474.31C694.965 1471.62 694.896 1468.76 693.502 1465.74C692.145 1462.74 689.731 1460.43 686.261 1458.81C682.686 1457.14 679.526 1456.62 676.781 1457.24C674.037 1457.85 672.079 1459.42 670.907 1461.93C669.801 1464.3 669.905 1466.53 671.22 1468.61C672.535 1470.69 675.38 1473.41 679.754 1476.79C684.163 1480.18 687.535 1483.35 689.87 1486.29C692.204 1489.23 693.594 1492.12 694.038 1494.96C694.535 1497.78 694.065 1500.72 692.629 1503.8C690.235 1508.94 686.258 1512.1 680.699 1513.3C675.156 1514.47 669.11 1513.53 662.56 1510.47C657.958 1508.33 654.266 1505.61 651.485 1502.33C648.704 1499.05 646.982 1495.49 646.318 1491.65C645.705 1487.78 646.192 1484.15 647.776 1480.76L657.601 1485.34C656.242 1488.71 656.331 1491.94 657.865 1495.03C659.452 1498.1 662.263 1500.57 666.299 1502.45C670.017 1504.19 673.337 1504.83 676.261 1504.38C679.236 1503.92 681.31 1502.43 682.482 1499.91ZM708.672 1530.68L698.848 1526.1L725.641 1468.64L735.465 1473.22L708.672 1530.68ZM731.951 1453.03C732.694 1451.44 733.799 1450.31 735.267 1449.66C736.77 1449.03 738.477 1449.15 740.389 1450.05C742.301 1450.94 743.497 1452.16 743.976 1453.72C744.456 1455.28 744.324 1456.86 743.581 1458.45C742.838 1460.04 741.723 1461.14 740.237 1461.74C738.75 1462.34 737.051 1462.19 735.139 1461.3C733.228 1460.41 732.024 1459.2 731.528 1457.68C731.067 1456.17 731.208 1454.62 731.951 1453.03ZM735.727 1507.74C739.903 1498.78 745.293 1492.63 751.894 1489.29C758.513 1485.91 765.238 1485.81 772.071 1489C779.081 1492.27 783.395 1497.3 785.013 1504.08L788.463 1497.94L797.437 1502.12L771.288 1558.2C767.821 1565.63 762.876 1570.46 756.453 1572.68C750.066 1574.92 743.155 1574.3 735.72 1570.83C731.578 1568.9 727.937 1566.13 724.798 1562.51C721.658 1558.89 719.762 1555.05 719.109 1551L726.956 1547.48C728.742 1554.65 732.68 1559.65 738.769 1562.49C743.549 1564.72 747.893 1565.11 751.803 1563.66C755.748 1562.22 758.86 1559.06 761.138 1554.18L763.441 1549.24C757.398 1551.94 750.978 1551.7 744.181 1548.53C737.454 1545.39 733.265 1540.14 731.614 1532.78C729.997 1525.43 731.368 1517.08 735.727 1507.74ZM745.084 1513.46C742.063 1519.94 741.013 1525.65 741.935 1530.61C742.873 1535.53 745.732 1539.1 750.512 1541.33C756.707 1544.22 762.569 1543.53 768.097 1539.25L780.329 1513.02C779.879 1506.13 776.645 1501.28 770.626 1498.47C765.847 1496.25 761.245 1496.36 756.821 1498.83C752.397 1501.29 748.485 1506.17 745.084 1513.46ZM821.6 1513.39L818.551 1520.76C825.516 1517.28 832.539 1517.19 839.619 1520.5C851.762 1526.16 854.693 1535.87 848.41 1549.62L830.705 1587.59L820.88 1583L838.611 1544.98C840.507 1540.82 840.979 1537.31 840.027 1534.46C839.11 1531.62 836.687 1529.28 832.758 1527.45C829.571 1525.96 826.378 1525.51 823.179 1526.08C819.979 1526.66 817.062 1528.02 814.43 1530.15L795.337 1571.09L785.513 1566.51L812.307 1509.05L821.6 1513.39ZM868.869 1606.67C861.081 1603.04 855.932 1597.54 853.424 1590.16C850.932 1582.75 851.684 1574.76 855.679 1566.19L856.521 1564.39C859.178 1558.69 862.627 1554.11 866.867 1550.66C871.158 1547.19 875.837 1545.1 880.904 1544.4C886.022 1543.69 890.865 1544.39 895.432 1546.52C902.902 1550.01 907.56 1555.17 909.408 1562.03C911.255 1568.88 910.041 1576.89 905.765 1586.06L903.858 1590.15L864.933 1572C862.434 1577.73 861.942 1583.08 863.458 1588.05C865.027 1593.01 868.254 1596.63 873.139 1598.9C876.609 1600.52 879.877 1601.18 882.945 1600.89C886.013 1600.6 888.994 1599.7 891.889 1598.21L895.711 1605.68C887.446 1610.83 878.499 1611.16 868.869 1606.67ZM891.668 1554.59C887.703 1552.75 883.698 1552.64 879.654 1554.29C875.626 1555.91 872.08 1559.17 869.016 1564.07L897.798 1577.49L898.145 1576.75C900.189 1571.63 900.643 1567.14 899.507 1563.29C898.388 1559.41 895.774 1556.51 891.668 1554.59ZM953.648 1585.69C952.276 1584.75 950.723 1583.88 948.989 1583.07C942.545 1580.06 936.894 1580.77 932.034 1585.18L913.016 1625.97L903.192 1621.39L929.985 1563.93L939.544 1568.39L936.608 1575.1C942.223 1571.47 947.987 1571.03 953.899 1573.79C955.811 1574.68 957.147 1575.6 957.907 1576.56L953.648 1585.69Z" fill="white"/>
<rect x="188" y="939" width="511" height="858" rx="95" fill="url(#paint8_linear)" stroke="white" stroke-width="10"/>
<path d="M430.9 1536C445.367 1536 457.267 1534.6 466.6 1531.8C476.4 1528.53 484.1 1524.33 489.7 1519.2C495.3 1513.6 499.033 1507.53 500.9 1501C503.233 1494 504.4 1487 504.4 1480C504.4 1471.13 501.833 1463.2 496.7 1456.2C491.567 1449.2 485.033 1443.13 477.1 1438C469.167 1432.4 460.3 1427.5 450.5 1423.3C440.7 1418.63 430.9 1414.43 421.1 1410.7C408.033 1406.03 394.5 1400.67 380.5 1394.6C366.5 1388.53 353.667 1380.83 342 1371.5C330.8 1362.17 321.467 1350.73 314 1337.2C306.533 1323.2 302.8 1305.93 302.8 1285.4C302.8 1244.8 315.867 1213.07 342 1190.2C368.6 1167.33 405 1155.9 451.2 1155.9C477.8 1155.9 500.9 1158.93 520.5 1165C540.567 1171.07 557.367 1177.83 570.9 1185.3L545.7 1251.8C534.033 1245.27 520.967 1239.67 506.5 1235C492.5 1230.33 476.167 1228 457.5 1228C411.767 1228 388.9 1244.57 388.9 1277.7C388.9 1286.1 391.233 1293.57 395.9 1300.1C400.567 1306.17 406.4 1311.77 413.4 1316.9C420.867 1321.57 429.033 1325.77 437.9 1329.5C447.233 1333.23 456.333 1336.73 465.2 1340C478.733 1345.13 492.733 1350.97 507.2 1357.5C522.133 1363.57 535.667 1371.97 547.8 1382.7C560.4 1392.97 570.667 1406.03 578.6 1421.9C586.533 1437.3 590.5 1456.9 590.5 1480.7C590.5 1521.3 577.2 1552.8 550.6 1575.2C524.467 1597.13 484.567 1608.1 430.9 1608.1C394.967 1608.1 366.267 1604.37 344.8 1596.9C323.333 1588.97 307.233 1581.73 296.5 1575.2L321.7 1505.2C334.3 1512.67 349.233 1519.67 366.5 1526.2C384.233 1532.73 405.7 1536 430.9 1536Z" fill="white"/>
<rect x="-300.591" y="1115.18" width="511" height="858" rx="95" transform="rotate(-20 -300.591 1115.18)" fill="url(#paint9_linear)" stroke="white" stroke-width="10"/>
<path d="M202.105 1730.58C-5.03207 1615.58 -188.945 1466.86 -192.563 1321.57C-196.182 1176.28 -96.711 1158.17 35.9254 1344.24C15.7435 1166.2 132.597 1016.9 211.505 1162.28C290.413 1307.66 298.679 1506.82 202.105 1730.58Z" fill="#A31414"/>
<path d="M1547 1304.6H1559V1326H1547V1304.6Z" fill="white"/>
</g>
<defs>
<linearGradient id="paint0_linear" x1="0" y1="0" x2="1024" y2="2048" gradientUnits="userSpaceOnUse">
<stop stop-color="#78ECF2"/>
<stop offset="1" stop-color="#71AFE5"/>
</linearGradient>
<linearGradient id="paint1_linear" x1="1292" y1="290" x2="1292" y2="1263" gradientUnits="userSpaceOnUse">
<stop stop-color="#71AFE5"/>
<stop offset="1" stop-color="#6576CC"/>
</linearGradient>
<linearGradient id="paint2_linear" x1="1350" y1="342" x2="1350" y2="1315" gradientUnits="userSpaceOnUse">
<stop stop-color="#71AFE5"/>
<stop offset="1" stop-color="#6576CC"/>
</linearGradient>
<linearGradient id="paint3_linear" x1="1408" y1="394" x2="1408" y2="1367" gradientUnits="userSpaceOnUse">
<stop stop-color="#71AFE5"/>
<stop offset="1" stop-color="#6576CC"/>
</linearGradient>
<linearGradient id="paint4_linear" x1="1466" y1="446" x2="1466" y2="1419" gradientUnits="userSpaceOnUse">
<stop stop-color="#71AFE5"/>
<stop offset="1" stop-color="#6576CC"/>
</linearGradient>
<linearGradient id="paint5_linear" x1="1771.92" y1="1564" x2="1771.92" y2="2432" gradientUnits="userSpaceOnUse">
<stop stop-color="#6576CC"/>
<stop offset="1" stop-color="#775EBF"/>
</linearGradient>
<linearGradient id="paint6_linear" x1="1436.43" y1="1157" x2="1436.43" y2="2025" gradientUnits="userSpaceOnUse">
<stop stop-color="#6576CC"/>
<stop offset="1" stop-color="#775EBF"/>
</linearGradient>
<linearGradient id="paint7_linear" x1="964.332" y1="934" x2="964.332" y2="1802" gradientUnits="userSpaceOnUse">
<stop stop-color="#6576CC"/>
<stop offset="1" stop-color="#775EBF"/>
</linearGradient>
<linearGradient id="paint8_linear" x1="443.5" y1="934" x2="443.5" y2="1802" gradientUnits="userSpaceOnUse">
<stop stop-color="#6576CC"/>
<stop offset="1" stop-color="#775EBF"/>
</linearGradient>
<linearGradient id="paint9_linear" x1="-46.5" y1="1112.19" x2="-46.5" y2="1980.19" gradientUnits="userSpaceOnUse">
<stop stop-color="#6576CC"/>
<stop offset="1" stop-color="#775EBF"/>
</linearGradient>
<clipPath id="clip0">
<rect width="2048" height="2048" fill="white"/>
</clipPath>
</defs>
</svg>
