<svg width="1010" height="1014" viewBox="0 0 1010 1014" fill="none" xmlns="http://www.w3.org/2000/svg">
<path d="M1010 502C1010 569.237 996.757 635.815 971.026 697.934C945.296 760.053 907.582 816.495 860.039 864.039C812.495 911.582 756.053 949.296 693.934 975.026C631.815 1000.76 565.237 1014 498 1014L498 758C531.618 758 564.908 751.378 595.967 738.513C627.026 725.648 655.248 706.791 679.019 683.019C702.791 659.248 721.648 631.026 734.513 599.967C747.378 568.908 754 535.618 754 502H1010Z" fill="#50A7E5"/>
<path d="M0 512C5.71156e-06 444.763 12.8682 378.185 37.87 316.066C62.8717 253.947 99.5174 197.505 145.715 149.961C191.912 102.418 246.756 64.7039 307.115 38.9735C367.475 13.2432 432.168 -6.49236e-05 497.5 2.36469e-10L497.5 256C464.834 256 432.487 262.622 402.308 275.487C372.128 288.352 344.706 307.209 321.607 330.981C298.509 354.752 280.186 382.974 267.685 414.033C255.184 445.092 248.75 478.382 248.75 512H0Z" fill="#50A7E5"/>
</svg>
