<svg width="225" height="239" viewBox="0 0 225 239" fill="none" xmlns="http://www.w3.org/2000/svg">
<g clip-path="url(#clip0)">
<path d="M145.582 108.809C139.61 106.071 133.225 104.08 126.549 102.947C125.729 104.4 124.771 106.354 124.111 107.909C117.014 106.863 109.983 106.863 103.017 107.909C102.356 106.354 101.377 104.4 100.55 102.947C93.8666 104.08 87.4739 106.078 81.502 108.824C69.4566 126.665 66.1912 144.064 67.8239 161.215C75.813 167.063 83.5555 170.615 91.1673 172.94C93.0467 170.404 94.7229 167.709 96.1669 164.869C93.4167 163.845 90.7827 162.581 88.2938 161.113C88.9541 160.634 89.5999 160.133 90.224 159.617C105.404 166.576 121.898 166.576 136.896 159.617C137.528 160.133 138.173 160.634 138.826 161.113C136.33 162.588 133.689 163.852 130.939 164.876C132.383 167.709 134.052 170.412 135.938 172.947C143.558 170.622 151.307 167.07 159.296 161.215C161.212 141.332 156.024 124.094 145.582 108.809ZM98.2349 150.667C93.678 150.667 89.941 146.497 89.941 141.419C89.941 136.342 93.5981 132.165 98.2349 132.165C102.872 132.165 106.609 136.334 106.529 141.419C106.536 146.497 102.872 150.667 98.2349 150.667ZM128.885 150.667C124.328 150.667 120.591 146.497 120.591 141.419C120.591 136.342 124.249 132.165 128.885 132.165C133.522 132.165 137.259 136.334 137.179 141.419C137.179 146.497 133.522 150.667 128.885 150.667Z" fill="white"/>
</g>
<line x1="66.3989" y1="38.947" x2="66.3989" y2="237.947" stroke="#5865F2"/>
<line x1="1.24951" y1="39.1345" x2="1.2495" y2="238.135" stroke="#5865F2"/>
<line x1="224.75" y1="38.5" x2="0.749511" y2="38.4998" stroke="#5865F2"/>
<line x1="223.818" y1="172.5" x2="1.81787" y2="172.5" stroke="#5865F2"/>
<line x1="223.818" y1="237.5" x2="1.81787" y2="237.5" stroke="#5865F2"/>
<line x1="159.824" y1="38.947" x2="159.824" y2="237.947" stroke="#5865F2"/>
<line x1="224.318" y1="38.947" x2="224.318" y2="237.947" stroke="#5865F2"/>
<line x1="223.818" y1="101.5" x2="1.81787" y2="101.5" stroke="#5865F2"/>
<line x1="66.8946" y1="40.6345" x2="1.34162" y2="40.447" stroke="#5865F2" stroke-width="3"/>
<line x1="224.101" y1="40.447" x2="160.183" y2="40.447" stroke="#5865F2" stroke-width="3"/>
<path d="M36.3993 15.9705L38.2293 15.7305L35.9193 12.0555L38.0943 8.62048H36.3243L34.9743 10.9005L33.5943 8.51548L31.7643 8.75548L33.9243 12.2205L31.6293 15.8655H33.4143L34.8693 13.3755L36.3993 15.9705Z" fill="white"/>
<path d="M192.65 15.9705L194.48 15.7305L192.17 12.0555L194.345 8.62048H192.575L191.225 10.9005L189.845 8.51548L188.015 8.75548L190.175 12.2205L187.88 15.8655H189.665L191.12 13.3755L192.65 15.9705Z" fill="white"/>
<path d="M36.9297 196.384C38.3238 193.513 40.2301 191.325 42.6556 189.819C45.0812 188.312 47.7841 187.552 50.7716 187.552C53.759 187.552 56.4264 188.305 58.7666 189.819C61.1067 191.332 62.9419 193.506 64.272 196.362C65.6022 199.211 66.2637 202.615 66.2637 206.558C66.2637 210.501 65.6022 213.904 64.272 216.754C62.9419 219.603 61.121 221.777 58.795 223.269C56.4691 224.761 53.8017 225.507 50.7787 225.507C47.7912 225.507 45.0883 224.761 42.6627 223.269C40.2372 221.777 38.3309 219.596 36.9368 216.725C35.5426 213.855 34.8455 210.466 34.8455 206.551C34.8455 202.636 35.5355 199.247 36.9297 196.384ZM45.764 211.496C46.9732 212.704 48.5736 213.315 50.5653 213.315C52.5569 213.315 54.1431 212.711 55.3168 211.496C56.4975 210.288 57.0879 208.64 57.0879 206.551C57.0879 204.426 56.4975 202.764 55.3168 201.549C54.136 200.341 52.5569 199.737 50.5653 199.737C48.5736 199.737 46.9732 200.341 45.764 201.549C44.5548 202.757 43.9431 204.426 43.9431 206.551C43.9502 208.64 44.5548 210.288 45.764 211.496Z" fill="#555555"/>
<path d="M5.51315 196.384C6.9073 193.513 8.81359 191.325 11.2391 189.819C13.6647 188.312 16.3676 187.552 19.3551 187.552C22.3425 187.552 25.0099 188.305 27.3501 189.819C29.6902 191.332 31.5254 193.506 32.8555 196.362C34.1857 199.211 34.8472 202.615 34.8472 206.558C34.8472 210.501 34.1857 213.904 32.8555 216.754C31.5254 219.603 29.7045 221.777 27.3785 223.269C25.0526 224.761 22.3852 225.507 19.3622 225.507C16.3747 225.507 13.6718 224.761 11.2462 223.269C8.8207 221.777 6.91441 219.596 5.52026 216.725C4.12612 213.855 3.42905 210.466 3.42905 206.551C3.42905 202.636 4.119 199.247 5.51315 196.384ZM14.3475 211.496C15.5567 212.704 17.1571 213.315 19.1488 213.315C21.1404 213.315 22.7266 212.711 23.9003 211.496C25.081 210.288 25.6714 208.64 25.6714 206.551C25.6714 204.426 25.081 202.764 23.9003 201.549C22.7195 200.341 21.1404 199.737 19.1488 199.737C17.1571 199.737 15.5567 200.341 14.3475 201.549C13.1383 202.757 12.5266 204.426 12.5266 206.551C12.5337 208.64 13.1383 210.288 14.3475 211.496Z" fill="#555555"/>
<path d="M193.683 61.235C195.077 58.3646 196.984 56.1762 199.409 54.6699C201.835 53.1637 204.538 52.4034 207.525 52.4034C210.512 52.4034 213.18 53.1566 215.52 54.6699C217.86 56.1833 219.695 58.3574 221.025 61.2137C222.356 64.0628 223.017 67.4661 223.017 71.4094C223.017 75.3526 222.356 78.7559 221.025 81.605C219.695 84.4542 217.874 86.6283 215.548 88.1204C213.222 89.6124 210.555 90.3584 207.532 90.3584C204.545 90.3584 201.842 89.6124 199.416 88.1204C196.991 86.6283 195.084 84.447 193.69 81.5766C192.296 78.7062 191.599 75.3171 191.599 71.4023C191.599 67.4874 192.289 64.0983 193.683 61.235ZM202.517 76.3473C203.727 77.5552 205.327 78.1662 207.319 78.1662C209.31 78.1662 210.897 77.5623 212.07 76.3473C213.251 75.1395 213.841 73.4911 213.841 71.4023C213.841 69.2779 213.251 67.6153 212.07 66.4003C210.889 65.1925 209.31 64.5885 207.319 64.5885C205.327 64.5885 203.727 65.1925 202.517 66.4003C201.308 67.6082 200.696 69.2779 200.696 71.4023C200.704 73.4911 201.308 75.1395 202.517 76.3473Z" fill="#555555"/>
<path d="M162.267 61.235C163.661 58.3646 165.567 56.1762 167.993 54.6699C170.418 53.1637 173.121 52.4034 176.108 52.4034C179.096 52.4034 181.763 53.1566 184.103 54.6699C186.444 56.1833 188.279 58.3574 189.609 61.2137C190.939 64.0628 191.601 67.4661 191.601 71.4094C191.601 75.3526 190.939 78.7559 189.609 81.605C188.279 84.4542 186.458 86.6283 184.132 88.1204C181.806 89.6124 179.139 90.3584 176.116 90.3584C173.128 90.3584 170.425 89.6124 168 88.1204C165.574 86.6283 163.668 84.447 162.274 81.5766C160.88 78.7062 160.182 75.3171 160.182 71.4023C160.182 67.4874 160.872 64.0983 162.267 61.235ZM171.101 76.3473C172.31 77.5552 173.911 78.1662 175.902 78.1662C177.894 78.1662 179.48 77.5623 180.654 76.3473C181.834 75.1395 182.425 73.4911 182.425 71.4023C182.425 69.2779 181.834 67.6153 180.654 66.4003C179.473 65.1925 177.894 64.5885 175.902 64.5885C173.911 64.5885 172.31 65.1925 171.101 66.4003C169.892 67.6082 169.28 69.2779 169.28 71.4023C169.287 73.4911 169.892 75.1395 171.101 76.3473Z" fill="#555555"/>
<defs>
<clipPath id="clip0">
<rect width="93" height="70" fill="white" transform="translate(67.1826 103.403)"/>
</clipPath>
</defs>
</svg>
