<svg width="502" height="239" viewBox="0 0 502 239" fill="none" xmlns="http://www.w3.org/2000/svg">
<g clip-path="url(#clip0)">
<path d="M144.901 108.406C138.929 105.667 132.543 103.677 125.868 102.544C125.048 103.996 124.09 105.951 123.43 107.505C116.333 106.459 109.302 106.459 102.336 107.505C101.675 105.951 100.696 103.996 99.8685 102.544C93.1855 103.677 86.7927 105.675 80.8208 108.42C68.7754 126.262 65.5101 143.66 67.1427 160.812C75.1319 166.659 82.8743 170.212 90.4861 172.536C92.3655 170.001 94.0417 167.306 95.4857 164.466C92.7356 163.441 90.1016 162.177 87.6127 160.71C88.273 160.23 88.9188 159.729 89.5428 159.213C104.723 166.173 121.216 166.173 136.215 159.213C136.846 159.729 137.492 160.23 138.145 160.71C135.649 162.185 133.008 163.449 130.258 164.473C131.702 167.306 133.371 170.008 135.257 172.544C142.876 170.219 150.626 166.667 158.615 160.812C160.531 140.929 155.343 123.69 144.901 108.406ZM97.5537 150.264C92.9968 150.264 89.2598 146.094 89.2598 141.016C89.2598 135.938 92.917 131.761 97.5537 131.761C102.191 131.761 105.927 135.931 105.848 141.016C105.855 146.094 102.191 150.264 97.5537 150.264ZM128.204 150.264C123.647 150.264 119.91 146.094 119.91 141.016C119.91 135.938 123.567 131.761 128.204 131.761C132.841 131.761 136.578 135.931 136.498 141.016C136.498 146.094 132.841 150.264 128.204 150.264Z" fill="white"/>
<path d="M190.724 120.401H210.534C215.308 120.401 219.343 121.149 222.652 122.638C225.953 124.128 228.428 126.205 230.068 128.864C231.708 131.523 232.535 134.567 232.535 137.995C232.535 141.352 231.678 144.395 229.966 147.12C228.254 149.851 225.649 152.009 222.144 153.599C218.639 155.19 214.3 155.989 209.111 155.989H190.724V120.401ZM208.908 146.945C212.123 146.945 214.597 146.139 216.324 144.533C218.051 142.921 218.915 140.727 218.915 137.945C218.915 135.366 218.146 133.31 216.607 131.77C215.069 130.23 212.74 129.452 209.627 129.452H203.43V146.945H208.908Z" fill="white"/>
<path d="M262.192 155.946C259.449 155.234 256.975 154.203 254.776 152.844V144.403C256.438 145.689 258.665 146.749 261.459 147.585C264.253 148.413 266.952 148.827 269.564 148.827C270.783 148.827 271.705 148.667 272.329 148.348C272.953 148.028 273.265 147.643 273.265 147.2C273.265 146.691 273.098 146.27 272.757 145.928C272.416 145.587 271.756 145.304 270.776 145.064L264.681 143.691C261.19 142.877 258.716 141.751 257.243 140.306C255.77 138.867 255.037 136.979 255.037 134.64C255.037 132.671 255.676 130.964 256.967 129.504C258.252 128.043 260.08 126.917 262.453 126.126C264.826 125.327 267.598 124.927 270.783 124.927C273.628 124.927 276.233 125.232 278.605 125.842C280.978 126.453 282.937 127.23 284.498 128.181V136.165C282.901 135.213 281.073 134.465 278.983 133.899C276.9 133.339 274.76 133.063 272.554 133.063C269.368 133.063 267.779 133.608 267.779 134.69C267.779 135.199 268.026 135.577 268.519 135.831C269.013 136.085 269.92 136.347 271.233 136.623L276.312 137.538C279.629 138.112 282.103 139.122 283.728 140.56C285.354 141.998 286.166 144.127 286.166 146.945C286.166 150.033 284.824 152.481 282.132 154.297C279.44 156.113 275.623 157.021 270.674 157.021C267.765 157.014 264.935 156.658 262.192 155.946Z" fill="white"/>
<path d="M298.154 154.878C295.244 153.454 293.046 151.522 291.58 149.081C290.114 146.64 289.374 143.894 289.374 140.843C289.374 137.792 290.136 135.061 291.66 132.656C293.184 130.252 295.419 128.363 298.365 126.99C301.311 125.617 304.83 124.934 308.93 124.934C314.009 124.934 318.225 126.002 321.577 128.138V137.443C320.395 136.63 319.016 135.969 317.441 135.46C315.867 134.952 314.183 134.697 312.384 134.697C309.234 134.697 306.775 135.271 304.997 136.426C303.219 137.581 302.326 139.085 302.326 140.952C302.326 142.783 303.19 144.279 304.917 145.456C306.644 146.626 309.147 147.214 312.434 147.214C314.125 147.214 315.794 146.967 317.441 146.48C319.081 145.986 320.496 145.383 321.679 144.671V153.672C317.956 155.909 313.639 157.028 308.726 157.028C304.59 157.014 301.064 156.302 298.154 154.878Z" fill="white"/>
<path d="M334.247 154.878C331.315 153.454 329.08 151.508 327.542 149.03C326.003 146.553 325.227 143.793 325.227 140.742C325.227 137.691 325.996 134.966 327.542 132.577C329.087 130.187 331.308 128.312 334.225 126.954C337.135 125.595 340.61 124.92 344.638 124.92C348.665 124.92 352.141 125.595 355.05 126.954C357.96 128.312 360.18 130.172 361.704 132.547C363.228 134.923 363.99 137.647 363.99 140.734C363.99 143.786 363.228 146.546 361.704 149.023C360.18 151.5 357.953 153.447 355.021 154.871C352.09 156.295 348.629 157.007 344.63 157.007C340.632 157.007 337.171 156.302 334.247 154.878ZM349.681 145.856C350.914 144.621 351.538 142.986 351.538 140.952C351.538 138.918 350.921 137.298 349.681 136.1C348.447 134.894 346.764 134.291 344.63 134.291C342.461 134.291 340.763 134.894 339.522 136.1C338.288 137.306 337.672 138.918 337.672 140.952C337.672 142.986 338.288 144.621 339.522 145.856C340.755 147.091 342.461 147.716 344.63 147.716C346.764 147.708 348.447 147.091 349.681 145.856Z" fill="white"/>
<path d="M394.51 126.808V137.792C393.219 136.942 391.55 136.521 389.482 136.521C386.775 136.521 384.685 137.342 383.234 138.983C381.776 140.625 381.05 143.182 381.05 146.64V155.997H368.605V126.249H380.796V135.707C381.471 132.249 382.567 129.7 384.076 128.051C385.578 126.409 387.523 125.588 389.888 125.588C391.68 125.588 393.219 125.995 394.51 126.808Z" fill="white"/>
<path d="M435.856 119.384V155.997H423.412V149.335C422.36 151.842 420.763 153.752 418.615 155.06C416.468 156.36 413.812 157.014 410.663 157.014C407.847 157.014 405.395 156.331 403.298 154.958C401.2 153.585 399.582 151.704 398.443 149.314C397.311 146.924 396.738 144.221 396.738 141.199C396.702 138.083 397.304 135.286 398.545 132.809C399.778 130.332 401.527 128.399 403.776 127.012C406.026 125.624 408.595 124.927 411.475 124.927C417.404 124.927 421.38 127.506 423.412 132.656V119.384H435.856ZM421.554 145.652C422.824 144.417 423.455 142.812 423.455 140.851C423.455 138.955 422.839 137.407 421.605 136.223C420.372 135.039 418.681 134.443 416.555 134.443C414.458 134.443 412.781 135.046 411.526 136.252C410.271 137.458 409.647 139.02 409.647 140.952C409.647 142.885 410.271 144.461 411.526 145.681C412.781 146.902 414.436 147.512 416.504 147.512C418.601 147.505 420.284 146.887 421.554 145.652Z" fill="white"/>
<path d="M243.02 129.416C246.446 129.416 249.224 126.918 249.224 123.837C249.224 120.756 246.446 118.258 243.02 118.258C239.594 118.258 236.816 120.756 236.816 123.837C236.816 126.918 239.594 129.416 243.02 129.416Z" fill="white"/>
<path d="M236.811 133.259C240.613 134.901 245.329 134.974 249.219 133.259V156.157H236.811V133.259Z" fill="white"/>
</g>
<line x1="65.751" y1="38.5436" x2="65.751" y2="237.544" stroke="#5865F2"/>
<line x1="1.68164" y1="38.5436" x2="1.68163" y2="237.544" stroke="#5865F2"/>
<line x1="190.751" y1="38.5436" x2="190.751" y2="237.544" stroke="#5865F2"/>
<line x1="435.751" y1="38.5438" x2="435.751" y2="237.544" stroke="#5865F2"/>
<line x1="501.75" y1="38.5" x2="1.18164" y2="38.5" stroke="#5865F2"/>
<line x1="500.761" y1="173.5" x2="1.61853" y2="173.5" stroke="#5865F2"/>
<line x1="500.761" y1="237.5" x2="1.61859" y2="237.5" stroke="#5865F2"/>
<line x1="500.751" y1="39.3647" x2="500.751" y2="238.538" stroke="#5865F2"/>
<line x1="159.507" y1="38.5436" x2="159.507" y2="237.544" stroke="#5865F2"/>
<line x1="501.432" y1="101.5" x2="1.18124" y2="101.5" stroke="#5865F2"/>
<line x1="65.583" y1="40.0436" x2="1.66451" y2="40.0436" stroke="#5865F2" stroke-width="3"/>
<line x1="190.251" y1="40.0436" x2="159.007" y2="40.0436" stroke="#5865F2" stroke-width="3"/>
<path d="M37.5482 15.327L35.2382 11.667L37.4132 8.21704H35.6432L34.2932 10.497L32.9132 8.11204L31.0832 8.35204L33.2432 11.817L30.9482 15.462H32.7332L34.1732 12.972L35.7182 15.567L37.5482 15.327Z" fill="white"/>
<path d="M171.779 18.827L169.469 15.167L171.644 11.717H169.874L168.524 13.997L167.144 11.612L165.314 11.852L167.474 15.317L165.179 18.962H166.964L168.404 16.472L169.949 19.067L171.779 18.827ZM179.87 8.80704L178.325 8.47704L171.56 20.537L173.105 20.867L179.87 8.80704ZM185.624 18.962L185.448 17.796H182.346L184.139 16.003C185.052 15.101 185.492 14.474 185.492 13.506C185.492 12.208 184.59 11.394 183.094 11.394C182.115 11.394 181.345 11.735 180.762 12.186L180.938 13.44C181.543 12.956 182.214 12.615 182.94 12.615C183.677 12.615 184.095 12.967 184.095 13.649C184.095 14.188 183.809 14.606 183.237 15.211L180.575 17.928V18.962H185.624Z" fill="white"/>
<path d="M162.037 60.9207C163.378 58.1599 165.212 56.0551 167.545 54.6063C169.877 53.1576 172.477 52.4264 175.351 52.4264C178.224 52.4264 180.789 53.1508 183.04 54.6063C185.291 56.0619 187.056 58.153 188.335 60.9001C189.615 63.6404 190.251 66.9138 190.251 70.7065C190.251 74.4991 189.615 77.7725 188.335 80.5128C187.056 83.2531 185.305 85.3442 183.068 86.7793C180.83 88.2143 178.265 88.9319 175.357 88.9319C172.484 88.9319 169.884 88.2143 167.551 86.7793C165.218 85.3442 163.385 83.2462 162.044 80.4854C160.703 77.7246 160.033 74.465 160.033 70.6996C160.033 66.9343 160.696 63.6746 162.037 60.9207ZM170.534 75.4559C171.697 76.6176 173.237 77.2053 175.152 77.2053C177.068 77.2053 178.593 76.6244 179.722 75.4559C180.858 74.2941 181.426 72.7087 181.426 70.6996C181.426 68.6564 180.858 67.0573 179.722 65.8887C178.586 64.727 177.068 64.1461 175.152 64.1461C173.237 64.1461 171.697 64.727 170.534 65.8887C169.371 67.0505 168.783 68.6564 168.783 70.6996C168.79 72.7087 169.371 74.2941 170.534 75.4559Z" fill="#555555"/>
<path d="M36.2485 195.98C37.6427 193.11 39.5489 190.921 41.9745 189.415C44.4 187.909 47.1029 187.149 50.0904 187.149C53.0779 187.149 55.7452 187.902 58.0854 189.415C60.4256 190.928 62.2607 193.103 63.5909 195.959C64.921 198.808 65.5825 202.211 65.5825 206.154C65.5825 210.098 64.921 213.501 63.5909 216.35C62.2607 219.199 60.4398 221.373 58.1139 222.865C55.7879 224.358 53.1205 225.104 50.0975 225.104C47.1101 225.104 44.4071 224.358 41.9816 222.865C39.556 221.373 37.6498 219.192 36.2556 216.322C34.8615 213.451 34.1644 210.062 34.1644 206.147C34.1644 202.233 34.8544 198.843 36.2485 195.98ZM45.0829 211.092C46.2921 212.3 47.8925 212.911 49.8841 212.911C51.8758 212.911 53.462 212.307 54.6356 211.092C55.8164 209.885 56.4067 208.236 56.4067 206.147C56.4067 204.023 55.8164 202.36 54.6356 201.145C53.4549 199.938 51.8758 199.334 49.8841 199.334C47.8925 199.334 46.2921 199.938 45.0829 201.145C43.8736 202.353 43.2619 204.023 43.2619 206.147C43.269 208.236 43.8736 209.885 45.0829 211.092Z" fill="#555555"/>
<path d="M4.832 195.98C6.22615 193.11 8.13243 190.921 10.558 189.415C12.9835 187.909 15.6864 187.149 18.6739 187.149C21.6614 187.149 24.3287 187.902 26.6689 189.415C29.0091 190.928 30.8442 193.103 32.1744 195.959C33.5045 198.808 34.166 202.211 34.166 206.154C34.166 210.098 33.5045 213.501 32.1744 216.35C30.8442 219.199 29.0233 221.373 26.6974 222.865C24.3714 224.358 21.704 225.104 18.681 225.104C15.6936 225.104 12.9906 224.358 10.5651 222.865C8.13955 221.373 6.23326 219.192 4.83911 216.322C3.44496 213.451 2.74789 210.062 2.74789 206.147C2.74789 202.233 3.43785 198.843 4.832 195.98ZM13.6663 211.092C14.8756 212.3 16.476 212.911 18.4676 212.911C20.4593 212.911 22.0455 212.307 23.2191 211.092C24.3999 209.885 24.9902 208.236 24.9902 206.147C24.9902 204.023 24.3999 202.36 23.2191 201.145C22.0383 199.938 20.4593 199.334 18.4676 199.334C16.476 199.334 14.8756 199.938 13.6663 201.145C12.4571 202.353 11.8454 204.023 11.8454 206.147C11.8525 208.236 12.4571 209.885 13.6663 211.092Z" fill="#555555"/>
<defs>
<clipPath id="clip0">
<rect width="381" height="70" fill="white" transform="translate(66.751 102.544)"/>
</clipPath>
</defs>
</svg>
