<svg width="2000" height="2000" viewBox="0 0 2000 2000" fill="none" xmlns="http://www.w3.org/2000/svg">
<g clip-path="url(#clip0)">
<g clip-path="url(#clip1)">
<rect width="2000" height="2000" rx="1000" fill="url(#paint0_linear)"/>
<g filter="url(#filter0_d)">
<path d="M416.504 26.8558C482.564 75.4571 517.09 119.368 517.09 241.211C517.09 516.463 432.511 531.947 573.903 929.005C687.017 1246.65 725.641 1311.02 730.813 1303.5" stroke="black" stroke-width="19.5313" stroke-linecap="round" stroke-linejoin="bevel"/>
<g filter="url(#filter1_i)">
<path d="M574.939 936.273L483.059 969.361C381.571 1005.91 328.927 1117.81 365.474 1219.3L547.455 1724.64C602.277 1876.87 770.126 1955.84 922.358 1901.01L574.939 936.273Z" fill="#C4C4C4"/>
<path d="M916.753 1020.77C880.206 919.284 768.306 866.639 666.818 903.187L574.938 936.274L922.357 1901.02C1074.59 1846.19 1153.56 1678.34 1098.73 1526.11L916.753 1020.77Z" fill="#8D8D8D"/>
<g filter="url(#filter2_i)">
<rect width="113.281" height="283.203" rx="14.6484" transform="matrix(-0.940853 0.338816 0.338816 0.940853 679.516 1059.5)" fill="#424242"/>
</g>
</g>
</g>
<path d="M797.586 481.914C753.576 481.914 719.982 469.674 696.805 445.195C673.888 420.716 662.43 385.951 662.43 340.898C662.43 318.503 665.945 298.581 672.977 281.133C680.008 263.424 689.643 248.581 701.883 236.602C714.123 224.362 728.706 215.117 745.633 208.867C762.56 202.617 780.919 199.492 800.711 199.492C812.169 199.492 822.586 200.404 831.961 202.227C841.336 203.789 849.539 205.742 856.57 208.086C863.602 210.169 869.461 212.383 874.149 214.727C878.836 217.07 882.221 218.893 884.305 220.195L866.727 269.414C858.393 264.987 848.628 261.211 837.43 258.086C826.492 254.961 813.992 253.398 799.93 253.398C790.555 253.398 781.31 254.961 772.195 258.086C763.341 261.211 755.399 266.289 748.367 273.32C741.596 280.091 736.128 288.945 731.961 299.883C727.794 310.82 725.711 324.102 725.711 339.727C725.711 352.227 727.013 363.945 729.617 374.883C732.482 385.56 736.909 394.805 742.899 402.617C749.149 410.43 757.221 416.68 767.117 421.367C777.013 425.794 788.992 428.008 803.055 428.008C811.909 428.008 819.852 427.487 826.883 426.445C833.914 425.404 840.164 424.232 845.633 422.93C851.102 421.367 855.919 419.674 860.086 417.852C864.253 416.029 868.029 414.336 871.414 412.773L888.211 461.602C879.617 466.81 867.508 471.497 851.883 475.664C836.258 479.831 818.159 481.914 797.586 481.914ZM1005.57 480.352C988.642 480.091 974.84 478.268 964.163 474.883C953.747 471.497 945.413 466.81 939.163 460.82C933.174 454.57 929.007 447.148 926.663 438.555C924.58 429.701 923.538 419.805 923.538 408.867V182.695L981.741 173.32V397.148C981.741 402.357 982.132 407.044 982.913 411.211C983.694 415.378 985.127 418.893 987.21 421.758C989.554 424.622 992.809 426.966 996.976 428.789C1001.14 430.612 1006.74 431.784 1013.77 432.305L1005.57 480.352ZM1105.34 476.445H1047.13V270.977H1105.34V476.445ZM1110.81 211.602C1110.81 222.279 1107.29 230.742 1100.26 236.992C1093.49 242.982 1085.42 245.977 1076.04 245.977C1066.67 245.977 1058.46 242.982 1051.43 236.992C1044.66 230.742 1041.28 222.279 1041.28 211.602C1041.28 200.924 1044.66 192.591 1051.43 186.602C1058.46 180.352 1066.67 177.227 1076.04 177.227C1085.42 177.227 1093.49 180.352 1100.26 186.602C1107.29 192.591 1110.81 200.924 1110.81 211.602ZM1150.28 373.711C1150.28 358.867 1152.63 344.935 1157.32 331.914C1162.26 318.633 1169.29 307.174 1178.41 297.539C1187.52 287.643 1198.59 279.831 1211.61 274.102C1224.63 268.372 1239.48 265.508 1256.14 265.508C1267.08 265.508 1277.11 266.549 1286.22 268.633C1295.34 270.456 1304.19 273.19 1312.78 276.836L1300.67 323.32C1295.21 321.237 1289.22 319.414 1282.71 317.852C1276.2 316.289 1268.9 315.508 1260.83 315.508C1243.64 315.508 1230.75 320.846 1222.16 331.523C1213.83 342.201 1209.66 356.263 1209.66 373.711C1209.66 392.201 1213.57 406.523 1221.38 416.68C1229.45 426.836 1243.38 431.914 1263.17 431.914C1270.21 431.914 1277.76 431.263 1285.83 429.961C1293.9 428.659 1301.33 426.576 1308.1 423.711L1316.3 471.367C1309.53 474.232 1301.07 476.706 1290.91 478.789C1280.75 480.872 1269.55 481.914 1257.32 481.914C1238.57 481.914 1222.42 479.18 1208.88 473.711C1195.34 467.982 1184.14 460.299 1175.28 450.664C1166.69 441.029 1160.31 429.701 1156.14 416.68C1152.24 403.398 1150.28 389.076 1150.28 373.711ZM1413.57 345.195C1419.29 338.945 1425.15 332.435 1431.14 325.664C1437.39 318.893 1443.38 312.253 1449.11 305.742C1454.84 298.971 1460.18 292.591 1465.13 286.602C1470.34 280.612 1474.76 275.404 1478.41 270.977H1547.55C1533.75 286.862 1520.21 302.096 1506.92 316.68C1493.9 331.003 1479.58 345.846 1463.96 361.211C1471.77 368.242 1479.84 376.706 1488.17 386.602C1496.51 396.237 1504.58 406.263 1512.39 416.68C1520.21 427.096 1527.37 437.513 1533.88 447.93C1540.39 458.346 1545.86 467.852 1550.28 476.445H1483.49C1479.32 469.674 1474.5 462.253 1469.03 454.18C1463.83 445.846 1458.23 437.643 1452.24 429.57C1446.25 421.237 1439.87 413.294 1433.1 405.742C1426.59 398.19 1420.08 391.81 1413.57 386.602V476.445H1355.36V182.695L1413.57 173.32V345.195ZM1640.56 434.648C1651.23 434.648 1658.79 433.607 1663.21 431.523C1667.64 429.44 1669.85 425.404 1669.85 419.414C1669.85 414.727 1666.99 410.69 1661.26 407.305C1655.53 403.659 1646.81 399.622 1635.09 395.195C1625.97 391.81 1617.64 388.294 1610.09 384.648C1602.8 381.003 1596.55 376.706 1591.34 371.758C1586.13 366.549 1582.09 360.43 1579.23 353.398C1576.37 346.367 1574.93 337.904 1574.93 328.008C1574.93 308.737 1582.09 293.503 1596.42 282.305C1610.74 271.107 1630.4 265.508 1655.4 265.508C1667.9 265.508 1679.88 266.68 1691.34 269.023C1702.8 271.107 1711.91 273.451 1718.68 276.055L1708.53 321.367C1701.76 319.023 1694.33 316.94 1686.26 315.117C1678.45 313.294 1669.59 312.383 1659.7 312.383C1641.47 312.383 1632.35 317.461 1632.35 327.617C1632.35 329.961 1632.75 332.044 1633.53 333.867C1634.31 335.69 1635.87 337.513 1638.21 339.336C1640.56 340.898 1643.68 342.721 1647.59 344.805C1651.76 346.628 1656.96 348.711 1663.21 351.055C1675.97 355.742 1686.52 360.43 1694.85 365.117C1703.19 369.544 1709.7 374.492 1714.39 379.961C1719.33 385.169 1722.72 391.029 1724.54 397.539C1726.63 404.049 1727.67 411.602 1727.67 420.195C1727.67 440.508 1719.98 455.872 1704.62 466.289C1689.52 476.706 1668.03 481.914 1640.17 481.914C1621.94 481.914 1606.7 480.352 1594.46 477.227C1582.48 474.102 1574.15 471.497 1569.46 469.414L1579.23 422.148C1589.13 426.055 1599.28 429.18 1609.7 431.523C1620.12 433.607 1630.4 434.648 1640.56 434.648Z" fill="#4A4A4A"/>
<path d="M726.443 559.525C730.357 566.701 734.814 575.617 739.816 586.271C745.034 596.709 750.362 608.125 755.798 620.52C761.452 632.697 766.997 645.2 772.433 658.029C777.869 670.859 782.979 682.927 787.763 694.234C792.547 682.927 797.657 670.859 803.093 658.029C808.529 645.2 813.965 632.697 819.402 620.52C825.055 608.125 830.383 596.709 835.384 586.271C840.603 575.617 845.169 566.701 849.083 559.525H895.4C897.574 574.529 899.531 591.382 901.271 610.082C903.228 628.565 904.859 647.918 906.163 668.141C907.685 688.146 908.99 708.26 910.077 728.482C911.382 748.705 912.469 767.732 913.339 785.562H863.761C863.109 763.6 862.239 739.681 861.152 713.805C860.064 687.928 858.433 661.835 856.259 635.523C852.345 644.656 847.996 654.768 843.212 665.857C838.428 676.947 833.644 688.037 828.861 699.127C824.294 710.217 819.836 720.872 815.487 731.092C811.139 741.094 807.442 749.684 804.398 756.859H768.845C765.801 749.684 762.104 741.094 757.755 731.092C753.406 720.872 748.84 710.217 744.056 699.127C739.489 688.037 734.814 676.947 730.03 665.857C725.247 654.768 720.898 644.656 716.984 635.523C714.809 661.835 713.178 687.928 712.091 713.805C711.004 739.681 710.134 763.6 709.482 785.562H659.904C660.773 767.732 661.752 748.705 662.839 728.482C664.144 708.26 665.448 688.146 666.753 668.141C668.275 647.918 669.906 628.565 671.646 610.082C673.603 591.382 675.668 574.529 677.843 559.525H726.443ZM1004.49 785.562H955.892V613.996H1004.49V785.562ZM1009.06 564.418C1009.06 573.333 1006.12 580.4 1000.25 585.619C994.597 590.62 987.857 593.121 980.028 593.121C972.2 593.121 965.351 590.62 959.48 585.619C953.826 580.4 950.999 573.333 950.999 564.418C950.999 555.503 953.826 548.544 959.48 543.543C965.351 538.324 972.2 535.715 980.028 535.715C987.857 535.715 994.597 538.324 1000.25 543.543C1006.12 548.544 1009.06 555.503 1009.06 564.418ZM1050.18 619.867C1058.44 617.475 1069.09 615.301 1082.14 613.344C1095.19 611.169 1108.89 610.082 1123.24 610.082C1137.81 610.082 1149.88 612.039 1159.44 615.953C1169.23 619.65 1176.95 624.977 1182.6 631.936C1188.26 638.894 1192.28 647.157 1194.67 656.725C1197.06 666.292 1198.26 676.947 1198.26 688.689V785.562H1149.66V694.561C1149.66 678.904 1147.59 667.814 1143.46 661.291C1139.33 654.768 1131.61 651.506 1120.3 651.506C1116.82 651.506 1113.13 651.723 1109.21 652.158C1105.3 652.376 1101.82 652.702 1098.78 653.137V785.562H1050.18V619.867ZM1388.7 779.691C1380.44 782.083 1369.78 784.258 1356.73 786.215C1343.69 788.389 1329.99 789.477 1315.64 789.477C1301.07 789.477 1288.89 787.52 1279.11 783.605C1269.54 779.691 1261.93 774.255 1256.27 767.297C1250.62 760.121 1246.6 751.641 1244.2 741.855C1241.81 732.07 1240.62 721.307 1240.62 709.564V613.996H1289.22V703.693C1289.22 719.35 1291.28 730.657 1295.41 737.615C1299.55 744.574 1307.26 748.053 1318.57 748.053C1322.05 748.053 1325.75 747.944 1329.66 747.727C1333.58 747.292 1337.05 746.857 1340.1 746.422V613.996H1388.7V779.691ZM1432.69 571.268L1481.29 563.439V613.996H1539.67V654.441H1481.29V714.783C1481.29 725.003 1483.03 733.158 1486.51 739.246C1490.2 745.335 1497.49 748.379 1508.36 748.379C1513.58 748.379 1518.91 747.944 1524.34 747.074C1530 745.987 1535.11 744.574 1539.67 742.834L1546.52 780.67C1540.65 783.062 1534.13 785.128 1526.95 786.867C1519.78 788.607 1510.97 789.477 1500.53 789.477C1487.27 789.477 1476.29 787.737 1467.59 784.258C1458.89 780.561 1451.93 775.56 1446.71 769.254C1441.5 762.73 1437.8 754.902 1435.62 745.77C1433.67 736.637 1432.69 726.525 1432.69 715.436V571.268ZM1564.72 701.084C1564.72 685.863 1567.01 672.598 1571.57 661.291C1576.36 649.766 1582.56 640.199 1590.17 632.588C1597.78 624.977 1606.47 619.215 1616.26 615.301C1626.26 611.387 1636.48 609.43 1646.92 609.43C1671.27 609.43 1690.52 616.932 1704.65 631.936C1718.79 646.722 1725.85 668.576 1725.85 697.496C1725.85 700.323 1725.74 703.476 1725.53 706.955C1725.31 710.217 1725.09 713.152 1724.88 715.762H1614.63C1615.72 725.764 1620.39 733.701 1628.65 739.572C1636.92 745.443 1648.01 748.379 1661.92 748.379C1670.84 748.379 1679.54 747.618 1688.02 746.096C1696.72 744.356 1703.78 742.29 1709.22 739.898L1715.74 779.365C1713.13 780.67 1709.65 781.975 1705.3 783.279C1700.96 784.584 1696.06 785.671 1690.63 786.541C1685.41 787.628 1679.75 788.498 1673.67 789.15C1667.58 789.803 1661.49 790.129 1655.4 790.129C1639.96 790.129 1626.48 787.846 1614.96 783.279C1603.65 778.713 1594.19 772.516 1586.58 764.687C1579.18 756.642 1573.64 747.183 1569.94 736.311C1566.46 725.438 1564.72 713.696 1564.72 701.084ZM1678.88 682.492C1678.67 678.361 1677.91 674.338 1676.6 670.424C1675.51 666.51 1673.67 663.031 1671.06 659.986C1668.66 656.942 1665.51 654.441 1661.6 652.484C1657.9 650.527 1653.23 649.549 1647.57 649.549C1642.14 649.549 1637.46 650.527 1633.55 652.484C1629.63 654.224 1626.37 656.616 1623.76 659.66C1621.15 662.704 1619.09 666.292 1617.56 670.424C1616.26 674.338 1615.28 678.361 1614.63 682.492H1678.88Z" fill="#4A4A4A"/>
<path d="M1218.06 881.328C1258.42 881.328 1289.41 888.49 1311.03 902.812C1332.64 916.875 1343.45 940.052 1343.45 972.344C1343.45 1004.9 1332.51 1028.46 1310.64 1043.05C1288.76 1057.37 1257.51 1064.53 1216.89 1064.53H1197.75V1155.16H1136.81V888.359C1150.09 885.755 1164.15 883.932 1179 882.891C1193.84 881.849 1206.86 881.328 1218.06 881.328ZM1221.97 933.281C1217.54 933.281 1213.11 933.411 1208.69 933.672C1204.52 933.932 1200.87 934.193 1197.75 934.453V1012.58H1216.89C1237.98 1012.58 1253.87 1009.71 1264.54 1003.98C1275.22 998.255 1280.56 987.578 1280.56 971.953C1280.56 964.401 1279.13 958.151 1276.26 953.203C1273.66 948.255 1269.75 944.349 1264.54 941.484C1259.6 938.359 1253.48 936.276 1246.19 935.234C1238.89 933.932 1230.82 933.281 1221.97 933.281ZM1368.8 1053.98C1368.8 1035.76 1371.54 1019.87 1377.01 1006.33C1382.74 992.526 1390.16 981.068 1399.27 971.953C1408.39 962.839 1418.8 955.937 1430.52 951.25C1442.5 946.562 1454.74 944.219 1467.24 944.219C1496.41 944.219 1519.46 953.203 1536.38 971.172C1553.31 988.88 1561.77 1015.05 1561.77 1049.69C1561.77 1053.07 1561.64 1056.85 1561.38 1061.02C1561.12 1064.92 1560.86 1068.44 1560.6 1071.56H1428.57C1429.87 1083.54 1435.47 1093.05 1445.37 1100.08C1455.26 1107.11 1468.54 1110.62 1485.21 1110.62C1495.89 1110.62 1506.3 1109.71 1516.46 1107.89C1526.88 1105.81 1535.34 1103.33 1541.85 1100.47L1549.66 1147.73C1546.54 1149.3 1542.37 1150.86 1537.16 1152.42C1531.96 1153.98 1526.1 1155.29 1519.59 1156.33C1513.34 1157.63 1506.57 1158.67 1499.27 1159.45C1491.98 1160.23 1484.69 1160.63 1477.4 1160.63C1458.91 1160.63 1442.76 1157.89 1428.96 1152.42C1415.42 1146.95 1404.09 1139.53 1394.98 1130.16C1386.12 1120.52 1379.48 1109.19 1375.05 1096.17C1370.89 1083.15 1368.8 1069.09 1368.8 1053.98ZM1505.52 1031.72C1505.26 1026.77 1504.35 1021.95 1502.79 1017.27C1501.49 1012.58 1499.27 1008.41 1496.15 1004.77C1493.28 1001.12 1489.51 998.125 1484.82 995.781C1480.39 993.437 1474.79 992.266 1468.02 992.266C1461.51 992.266 1455.91 993.437 1451.23 995.781C1446.54 997.865 1442.63 1000.73 1439.51 1004.37C1436.38 1008.02 1433.91 1012.32 1432.09 1017.27C1430.52 1021.95 1429.35 1026.77 1428.57 1031.72H1505.52ZM1730.52 1001.25C1725.31 999.948 1719.19 998.646 1712.16 997.344C1705.13 995.781 1697.57 995 1689.5 995C1685.86 995 1681.43 995.391 1676.22 996.172C1671.27 996.693 1667.5 997.344 1664.89 998.125V1155.16H1606.69V960.625C1617.11 956.979 1629.35 953.594 1643.41 950.469C1657.73 947.083 1673.62 945.391 1691.06 945.391C1694.19 945.391 1697.97 945.651 1702.39 946.172C1706.82 946.432 1711.25 946.953 1715.67 947.734C1720.1 948.255 1724.53 949.036 1728.96 950.078C1733.38 950.859 1737.16 951.901 1740.28 953.203L1730.52 1001.25Z" fill="#4A4A4A"/>
</g>
</g>
<defs>
<filter id="filter0_d" x="338.244" y="1.46484" width="824.773" height="2045.69" filterUnits="userSpaceOnUse" color-interpolation-filters="sRGB">
<feFlood flood-opacity="0" result="BackgroundImageFix"/>
<feColorMatrix in="SourceAlpha" type="matrix" values="0 0 0 0 0 0 0 0 0 0 0 0 0 0 0 0 0 0 127 0"/>
<feOffset dx="15.625" dy="15.625"/>
<feGaussianBlur stdDeviation="15.625"/>
<feColorMatrix type="matrix" values="0 0 0 0 0.3625 0 0 0 0 0.3625 0 0 0 0 0.3625 0 0 0 0.2 0"/>
<feBlend mode="normal" in2="BackgroundImageFix" result="effect1_dropShadow"/>
<feBlend mode="normal" in="SourceGraphic" in2="effect1_dropShadow" result="shape"/>
</filter>
<filter id="filter1_i" x="353.869" y="891.581" width="770.086" height="1116.51" filterUnits="userSpaceOnUse" color-interpolation-filters="sRGB">
<feFlood flood-opacity="0" result="BackgroundImageFix"/>
<feBlend mode="normal" in="SourceGraphic" in2="BackgroundImageFix" result="shape"/>
<feColorMatrix in="SourceAlpha" type="matrix" values="0 0 0 0 0 0 0 0 0 0 0 0 0 0 0 0 0 0 127 0" result="hardAlpha"/>
<feOffset dx="7.8125" dy="7.8125"/>
<feGaussianBlur stdDeviation="7.8125"/>
<feComposite in2="hardAlpha" operator="arithmetic" k2="-1" k3="1"/>
<feColorMatrix type="matrix" values="0 0 0 0 0.975 0 0 0 0 0.975 0 0 0 0 0.975 0 0 0 0.25 0"/>
<feBlend mode="normal" in2="shape" result="effect1_innerShadow"/>
</filter>
<filter id="filter2_i" x="577.027" y="1063.59" width="198.256" height="304.461" filterUnits="userSpaceOnUse" color-interpolation-filters="sRGB">
<feFlood flood-opacity="0" result="BackgroundImageFix"/>
<feBlend mode="normal" in="SourceGraphic" in2="BackgroundImageFix" result="shape"/>
<feColorMatrix in="SourceAlpha" type="matrix" values="0 0 0 0 0 0 0 0 0 0 0 0 0 0 0 0 0 0 127 0" result="hardAlpha"/>
<feOffset dx="3.90625" dy="7.8125"/>
<feGaussianBlur stdDeviation="7.8125"/>
<feComposite in2="hardAlpha" operator="arithmetic" k2="-1" k3="1"/>
<feColorMatrix type="matrix" values="0 0 0 0 0.816667 0 0 0 0 0.816667 0 0 0 0 0.816667 0 0 0 0.2 0"/>
<feBlend mode="normal" in2="shape" result="effect1_innerShadow"/>
</filter>
<linearGradient id="paint0_linear" x1="2000" y1="0" x2="0" y2="2000" gradientUnits="userSpaceOnUse">
<stop stop-color="#71AFE5"/>
<stop offset="1" stop-color="#78ECF2"/>
<stop offset="1" stop-color="#78ECF2"/>
</linearGradient>
<clipPath id="clip0">
<rect width="2000" height="2000" fill="white"/>
</clipPath>
<clipPath id="clip1">
<rect width="2000" height="2000" rx="1000" fill="white"/>
</clipPath>
</defs>
</svg>
